<svg xmlns="http://www.w3.org/2000/svg" viewBox="0 0 133.81 441.69"><defs><style>.cls-1{fill:#272727;}.cls-2{fill:#414242;}.cls-3{fill:#cecdcd;}.cls-4,.cls-7{fill:#979696;}.cls-5{fill:#e2e2e2;}.cls-6,.cls-8{fill:#8e8e8e;}.cls-6{stroke:#606161;}.cls-16,.cls-17,.cls-18,.cls-6,.cls-7{stroke-miterlimit:10;}.cls-18,.cls-7{stroke:#5c5c5c;}.cls-9{fill:#4a494a;}.cls-10{fill:#40403f;}.cls-11{fill:#f0efef;}.cls-12{fill:#7b7b7b;}.cls-13{fill:#c6c4c4;}.cls-14{fill:#6d6d6d;}.cls-15{fill:#dbd9d9;}.cls-16,.cls-18{fill:none;}.cls-16{stroke:#6d6d6d;stroke-width:1.5px;}.cls-17{fill:#3d3d3d;stroke:#494848;}</style></defs><title>Asset 1</title><g id="Layer_2" data-name="Layer 2"><g id="Layer_3" data-name="Layer 3"><path class="cls-1" d="M71.73,374.28s3.87,4.21,3.54,6.73-7.75,9.09-9.43,7.75-1.35,3-3.7,4.55S42.77,405,41.43,405.39s-20.71,4.41-14.65-8S41.93,387.58,47.49,381,71.73,374.28,71.73,374.28Z"/><path class="cls-1" d="M94.13,406.31s-1.18,8,0,10.06,6.4,7.75,7.24,7.07a15.75,15.75,0,0,0,2-2.36,4.78,4.78,0,0,0-.78,6.57c2.6,3.87,10.33,15,18.42,14s15.16-5.39,12-12.8-10.27-14.65-13.3-17.17-7.24-9.43-8.08-13.3S94.13,406.31,94.13,406.31Z"/><path class="cls-2" d="M41,169.15l45.12,2.24s22.21,56.8,21.1,58.37-2.09,21.42-1.49,30.58-1.29,52.57.33,58.25,14.48,76.17,15,79.76-34.78,11.45-36.77,3.82S67.69,265,62.31,258c0,0-2.24-9.25-3.59-12.48s-.22,47.1,0,49.32,2.92,42.41,5.16,49.37,8.76,25.59,9.2,27.16-24.69,17.73-33.67,12.12c0,0,.71-18.86-4.25-32.33s-13.94-84.54-14.39-90.87-8.93-30.35-6-36.86S41,169.15,41,169.15Z"/><path class="cls-3" d="M48.13,62.47s1.55.16,2.05-6.07,26.1-1.81,26.1-1.81-.1,5,3.06,6.58-10.43,22-10.43,22L45.81,79.75Z"/><path class="cls-4" d="M79.34,61.17s-6.94,96.34-11.65,102-10.1,23-10.55,26.72,11.22,31.52,29,40.05,23.57-9.6,25.37-14.79-6.29-20-7.07-20.46-6.11-1.88-4.6-4.81c2.79-5.4,4-27.42,2.44-32.69-1.61-5.47,2.94-34.08,2.16-37.35s8.87-41.71,11.79-42.25S97.83,68.4,90.06,68.15A12.47,12.47,0,0,1,79.34,61.17Z"/><path class="cls-5" d="M60.28,76.56l2.92,2.79,2.92.41-4,82.21,5.39-82.61s1.88-2.85,2.47-3.79,8.4-1.19,8.4-1.19-6.5,68.47-7.19,73.08-7.49,22.83-7.49,22.83l-10.84-.9s-.33-9.67,1.32-12.13-4.93-80.68-4.93-80.68Z"/><path class="cls-6" d="M113,209.56s-9.7-9.2-12.15-9.65,3.61-22,1.74-25.59,1.91-11.81,0-15,.25-64.53,11.39-78.1c0,0,2.92-6.15,4.45-4.35s5,49.87,4.15,56.59,8,22.36,5.59,33.39-12,42.36-12.89,43.65S113,209.56,113,209.56Z"/><path class="cls-7" d="M19.1,75.55s-6,1.91-8.65,6.78S-2.32,170,1.26,185.76,19.1,216.07,19.1,216.07L30.74,162Z"/><path class="cls-8" d="M48.13,62.47s7,88.1,5.42,95.71,1,22,1.46,24.44,3.92,10,3.26,15.43S46.82,244.13,45,245.25s-18.41-.67-24.69-7.18a60.78,60.78,0,0,1-9.88-13.92s10.78-48.27,10.78-53.88,1.57-60.61-.22-67.35-2.9-26.22-1.9-27.37,16.09-4.93,20.44-7.08S47.88,65.34,48.13,62.47Z"/><path class="cls-9" d="M62.25,79S52,161.43,54.14,163.21s7.55,4.85,10.55,3.65,5.11-14.59,5.74-16.7,0-71.15-2.74-73.45S62.25,79,62.25,79Z"/><path class="cls-10" d="M59,73.69c.1-.57,10-1.12,10.89,0s.79,4.73-2.19,6.07a7.37,7.37,0,0,1-5.13,0A5.11,5.11,0,0,1,59,73.69Z"/><path class="cls-11" d="M69.08,73.13S72,82.64,71.79,84.29,78.34,75,78.34,75l1-13.86S74.69,71.82,69.08,73.13Z"/><path class="cls-11" d="M49.32,77.91l11,6.38.79-11.06S49.13,69.34,48.13,62.47C47.84,60.48,49.39,79,49.32,77.91Z"/><path class="cls-12" d="M59.54,188.06s-1.07-.25-1.52,1.87,2.81,5.15,4.6,3.91,2.6-3,2.25-3.91S62,186.67,59.54,188.06Z"/><path class="cls-13" d="M45.8,33.08s-3-1-4.38,0S38.66,37,40,40.89s2.13,4.15,2.6,5.55,1.68,4.19,6.46,2.29S45.8,33.08,45.8,33.08Z"/><path class="cls-14" d="M79.82,29.93s2.35-12.44,1.68-16S79.65,5.87,72.41,3,57.69-.87,53.85.82,43.15,8.29,42.21,8.94s-4.48,5.85-4.48,8.46.89,15.83,4.48,16.25S79.82,29.93,79.82,29.93Z"/><path class="cls-13" d="M75.54,30.79s2.72-1.65,4.25-1S83.4,32.87,83,37s-1.09,4.53-1.21,6S81.14,47.5,76,46.79,75.54,30.79,75.54,30.79Z"/><path class="cls-15" d="M47,52.7c.66,1.62,3.7,7.51,5.89,8.47S58,65.54,59,65.6s6.61.42,10.1-3.13,6.69-6.24,7.37-10,.34-23,0-25-1.52-10.59-1.52-10.59-9.54.64-10.24,1.5-3,3-3.62,3-3.06-1.67-3.94-.82-4.59.17-5.43-1.85-6.23-2.86-7.41-1.85S41.43,18,42.61,24.91,45,42.42,45.47,45.11A68.1,68.1,0,0,0,47,52.7Z"/><path class="cls-16" d="M60.81,34.54s9.85-1.68,11.56-1.06,2.14,6.34,1.63,7.2c-.63,1.06-10.11,1.58-10.88.57s-2.31-6.71-2.31-6.71a16.87,16.87,0,0,0-3.73.18c-.56.3,1.58,6.8-.23,7a82.14,82.14,0,0,1-8.87.44c-.51-.1-2.62-4.72-2.06-6.85.2-.76,1.34-.88,3-1a80.54,80.54,0,0,1,9,.21"/><line class="cls-16" x1="76.63" y1="30.23" x2="72.71" y2="33.21"/><line class="cls-16" x1="43.87" y1="33.92" x2="45.75" y2="36.48"/><path class="cls-17" d="M58.87,183.15s11.4-39.39,15.4-66.46c1.74-11.77,2.56-24,2.56-24s1.05-8.19,1.22-13.31c.29-9.06.27-18.43.27-18.43s5.5,7.25,8.75,9.63,9.25,19.75,9.25,19.75L82.7,92.19s19.5-.62,19,.63S83,133.12,79.82,140.21C77.18,146,60.55,179.41,59,182.54s1.21-2.48,1.21-2.48"/><path class="cls-17" d="M56.57,187.63s-2.49-41.43-4.88-68.69c-1.07-12.24-1.14-24.21-1.14-24.21S49.38,87,49.21,81.89c-.29-9.06-1.58-18.7-1.58-18.7s-5.5,7.25-8.75,9.63-9.25,19.75-9.25,19.75l13.63,1.88s-19.5-.62-19,.63S42.6,135,44.81,142.46c1.88,6.34,10.25,42,11.75,45.17s-.49-1.5-.49-1.5"/><path class="cls-18" d="M19.1,75.55s-.32,19.33,1.9,27.37.28,30.37,0,32.2.58,31.92.22,35.14S14.22,210,13.55,210"/></g></g></svg>