<svg xmlns="http://www.w3.org/2000/svg" viewBox="0 0 150.11 455.96"><defs><style>.cls-1{fill:#4c4c4d;}.cls-2{fill:#414242;}.cls-3{fill:#cecdcd;}.cls-19,.cls-4{fill:#979696;}.cls-5{fill:#e2e2e2;}.cls-6,.cls-7{fill:#8e8e8e;}.cls-18,.cls-6{stroke:#606161;}.cls-15,.cls-16,.cls-17,.cls-18,.cls-19,.cls-6{stroke-miterlimit:10;}.cls-8{fill:#4a494a;}.cls-9{fill:#40403f;}.cls-10{fill:#f0efef;}.cls-11{fill:#7b7b7b;}.cls-12{fill:#c6c4c4;}.cls-13{fill:#6d6d6d;}.cls-14{fill:#dbd9d9;}.cls-15,.cls-17,.cls-18{fill:none;}.cls-15{stroke:#6d6d6d;stroke-width:1.5px;}.cls-16{fill:#3d3d3d;stroke:#494848;}.cls-17,.cls-19{stroke:#5c5c5c;}</style></defs><title>Asset 14</title><g id="Layer_2" data-name="Layer 2"><g id="suspect_1"><path class="cls-1" d="M78.46,383.14s4.75,7.8,5.5,10.74c.6,2.32-7.23,6.51-9.87,7.88-.23.12-.74-.48-.9-.64-.58-.59-.92-.27-2,.46s-.34,3.25-1.87,4.23c-2.43,1.56-19.9,11.81-21.37,12.47-14.36,6.47-25.12,3.35-15.11-8.3,9.2-10.72,15.64-10.08,21.37-16.85S78.46,383.14,78.46,383.14Z"/><path class="cls-1" d="M103.39,417.19s-2.34,10.34-1,12.42,3.72,3.55,4.55,4.39.79-1.24,1.85-1a1.36,1.36,0,0,1,1.17,1.45s-1.07.6.24,2.92c.33.58,20.14,16.7,29.51,18.32,9.87,1.71,13.39-6.22,7.46-13.12-5.7-6.64-11.8-14.88-14.83-17.85S123.91,415,122.92,411,103.39,417.19,103.39,417.19Z"/><path class="cls-2" d="M47.54,174.53l46.55,2.32s22.92,58.6,21.77,60.22-2.16,22.1-1.54,31.55-1.34,54.24.34,60.11,14.94,78.6,15.49,82.3S94.26,422.84,92.21,415,75.1,273.43,69.54,266.25c0,0-2.32-9.55-3.71-12.88s-.23,48.59,0,50.89,3,43.76,5.33,50.94,9,26.41,9.5,28-25.48,18.3-34.75,12.51c0,0,.74-19.46-4.38-33.36s-14.38-87.23-14.85-93.76-9.22-31.32-6.23-38S47.54,174.53,47.54,174.53Z"/><path class="cls-3" d="M54.92,64.46s1.59.16,2.12-6.27S84,56.32,84,56.32s-.11,5.11,3.16,6.79S76.36,85.83,76.36,85.83L52.52,82.29Z"/><path class="cls-4" d="M87.12,63.11S80,162.51,75.1,168.4,64.68,192.17,64.21,196,75.79,228.5,94.09,237.3s24.32-9.9,26.18-15.26-6.49-20.65-7.3-21.11-2.27-4.31-.7-7.33c2.88-5.57.08-25.92-1.52-31.36-1.66-5.64,3-35.16,2.23-38.54s9.15-43,12.16-43.59-18.93-9.54-27-9.79A12.86,12.86,0,0,1,87.12,63.11Z"/><path class="cls-5" d="M67.46,79l3,2.88,3,.42-4.17,84.82,5.56-85.24s1.94-2.94,2.55-3.91,8.67-1.23,8.67-1.23-6.71,70.65-7.42,75.41-7.73,23.55-7.73,23.55l-11.19-.93s-.34-10,1.36-12.52S56,79,56,79Z"/><path class="cls-6" d="M121.9,222s-12-13.16-14.48-13.64,5.68-20.38,3.75-24.27,2.22-12.86,0-16.11c-.63-.93-.89-22.9,1.81-44.32a237.54,237.54,0,0,1,8.53-39.16c.29-.78,1.31-4.58,3.14-4.75,3.3-.31,10.07,52.24,9.22,59.46s2.2,26.82-.26,38.69S124,219.36,123,220.75,121.9,222,121.9,222Z"/><path class="cls-7" d="M54.65,64.46s7.39,90.91,5.73,98.75,1.07,22.73,1.54,25.22,4.14,10.36,3.44,15.92-12.11,47.55-14,48.71-19.48-.69-26.13-7.41a62.67,62.67,0,0,1-10.45-14.36s11.4-49.8,11.4-55.59,1.66-62.54-.24-69.49-3.07-27.06-2-28.24,17-5.09,21.63-7.31S54.38,67.42,54.65,64.46Z"/><path class="cls-8" d="M69.49,81.47s-10.54,85.1-8.37,86.94,7.79,5,10.88,3.77,5.27-15.05,5.92-17.23,0-73.41-2.82-75.79S69.49,81.47,69.49,81.47Z"/><path class="cls-9" d="M66.18,76c.1-.59,10.31-1.15,11.23,0s.81,4.88-2.26,6.26a7.6,7.6,0,0,1-5.29,0A5.27,5.27,0,0,1,66.18,76Z"/><path class="cls-10" d="M76.53,75.45s3,9.82,2.8,11.52,6.76-9.55,6.76-9.55l1-14.31S82.32,74.11,76.53,75.45Z"/><path class="cls-10" d="M56.14,80.39,67.46,87l.81-11.41S56,71.55,54.92,64.46C54.62,62.4,56.22,81.49,56.14,80.39Z"/><path class="cls-11" d="M66.68,194s-1.1-.26-1.57,1.92,2.9,5.31,4.75,4,2.68-3.09,2.33-4S69.18,192.6,66.68,194Z"/><path class="cls-12" d="M52.51,34.13s-3.13-1-4.52,0-2.85,4-1.42,8.06,2.2,4.28,2.68,5.73,1.73,4.33,6.67,2.37S52.51,34.13,52.51,34.13Z"/><path class="cls-13" d="M87.61,30.88S90,18,89.35,14.4,87.43,6.06,80,3.11,64.78-.9,60.82.84s-11,7.71-12,8.38-4.62,6-4.62,8.73.92,16.33,4.62,16.77S87.61,30.88,87.61,30.88Z"/><path class="cls-12" d="M83.2,31.77s2.8-1.71,4.39-1.07,3.72,3.22,3.29,7.49-1.12,4.68-1.25,6.2S89,49,83.71,48.27,83.2,31.77,83.2,31.77Z"/><path class="cls-14" d="M53.73,54.37c.68,1.67,3.82,7.75,6.08,8.74s5.29,4.51,6.29,4.57,6.82.43,10.43-3.23,6.91-6.44,7.6-10.35.35-23.76,0-25.82-1.56-10.92-1.56-10.92S72.72,18,72,18.91,68.9,22,68.27,22s-3.15-1.72-4.07-.85-4.74.17-5.6-1.91-6.43-3-7.64-1.91-3,1.22-1.74,8.34,2.43,18.07,3,20.85S53.21,53.08,53.73,54.37Z"/><path class="cls-15" d="M68,35.63s10.16-1.74,11.93-1.1,2.21,6.55,1.69,7.42c-.65,1.09-10.43,1.63-11.23.59S68,35.63,68,35.63a17.4,17.4,0,0,0-3.85.19c-.58.31,1.63,7-.23,7.24a84.75,84.75,0,0,1-9.15.46c-.53-.11-2.7-4.87-2.13-7.07.2-.78,1.39-.9,3.06-1a83.11,83.11,0,0,1,9.32.22"/><line class="cls-15" x1="84.33" y1="31.2" x2="80.28" y2="34.26"/><line class="cls-15" x1="50.52" y1="35" x2="52.46" y2="37.65"/><path class="cls-16" d="M66,189s11.76-40.64,15.89-68.57c1.8-12.14,2.65-24.77,2.65-24.77s1.09-8.45,1.26-13.73c.3-9.35.28-19,.28-19s5.67,7.48,9,9.93,9.54,20.38,9.54,20.38L90.58,95.12s20.12-.64,19.6.64-19.25,41.59-22.57,48.9c-2.72,6-19.89,40.45-21.44,43.67s1.25-2.56,1.25-2.56"/><path class="cls-16" d="M63.62,193.6s-2.57-42.75-5-70.87c-1.11-12.63-1.17-25-1.17-25s-1.2-8-1.37-13.25c-.3-9.35-1.63-19.3-1.63-19.3s-5.67,7.48-9,9.93-9.54,20.38-9.54,20.38l14.06,1.93s-20.12-.64-19.6.64S49.2,139.29,51.49,147c1.94,6.54,10.58,43.39,12.13,46.61s-.5-1.55-.5-1.55"/><path class="cls-17" d="M25,78s-.33,19.95,2,28.24.29,31.34,0,33.23.6,32.93.23,36.26-7.22,41-7.91,41"/><path class="cls-18" d="M106.22,204.25s-2.86,6.75,12.3,15.37"/><path class="cls-19" d="M26.51,77.16S20.28,79,17.27,84.24c-1.43,2.48-12.8,43.53-16.07,76.89-1.52,15.54-.51,23.44,2.46,32.35,5.54,16.62,11.68,31.15,11.68,31.15L25,202.35l-1.51-25.86V164l4.21-43.75Z"/><path class="cls-3" d="M107.35,208.93a26.51,26.51,0,0,0,2.35,3.45,47.18,47.18,0,0,0,4.68,4c.9.45,3,2.29,3.58,2.39s-5.55-5.77-6.06-6.16S107.91,208.92,107.35,208.93Z"/><path class="cls-17" d="M28.51,198.12s-11.1,27.41-11.73,26.82"/><polygon class="cls-3" points="16.91 221.85 17.44 223.61 24.36 207.04 24.43 205.27 16.91 221.85"/></g></g></svg>