<svg xmlns="http://www.w3.org/2000/svg" viewBox="0 0 133.82 458.27"><defs><style>.cls-1{fill:none;}.cls-1,.cls-4,.cls-9{stroke:#020202;}.cls-1,.cls-2,.cls-4,.cls-5,.cls-7,.cls-8,.cls-9{stroke-miterlimit:10;}.cls-2{fill:#dbdad9;}.cls-2,.cls-5{stroke:#595858;}.cls-3,.cls-8{fill:#b4b4b5;}.cls-4{fill:#2e2e2e;}.cls-15,.cls-5{fill:#767576;}.cls-6{fill:#545554;}.cls-7{fill:#343535;stroke:#545554;}.cls-8{stroke:#969696;}.cls-9{fill:#212121;}.cls-10{fill:#282827;}.cls-11{fill:#151515;}.cls-12{fill:#212222;}.cls-13{fill:#333;}.cls-14{fill:#717272;}</style></defs><title>Asset 15</title><g id="Layer_2" data-name="Layer 2"><g id="Layer_1-2" data-name="Layer 1"><path class="cls-1" d="M68.61,127.91"/></g><g id="suspect_2"><path class="cls-2" d="M51.61,65.66l-6.33,4.11s.52,2.81,2.22,2.35,6-3.92,6-3.92"/><polygon class="cls-3" points="75.24 76.11 82.55 84.78 76.8 91.48 72.83 94.24 75.24 76.11"/><path class="cls-4" d="M77.38,91.83s23-27.62,24.37-27.91,5.22,8.76,8,9.81,22.63,7.66,23.32,16-1.74,33.74-5.57,43.85-15,44.79-15,48.33,11.83,34.18,13.58,49.49,4.53,24.37,4.53,25.41-35.16,11.49-51.17,8.35-28.54-21.23-29.24-27.85-2.09-46.3-2.44-50.47,1.39-34.55,0-38.33-1.3-29,1.74-34.76c3.22-6.06,8.68-21.42,9.37-20S77.38,91.83,77.38,91.83Z"/><path class="cls-1" d="M129.67,85.29S109.83,78,103.91,94s-4.49,23.47-5.22,26.1"/><polygon class="cls-4" points="75.24 76.11 67.6 79.46 68.61 101.3 72.83 94.24 75.24 76.11"/><polygon class="cls-1" points="48.91 157.34 68.61 127.91 64.27 120.09 48.91 157.34"/><path class="cls-3" d="M57.27,110.44S53.44,122,53.44,125.38V145.2l10.83-25.11Z"/><path class="cls-5" d="M72.83,95.1s-1.31-17.75-3.14-19.71S57.94,59.92,56.57,59.59A1.78,1.78,0,0,0,54.48,62c.65,1.37,8.22,12.07,8.22,12.07S55.13,61.35,53,62.33s-1.11,2.48-1,3,7,11.24,6.85,12-1.11,1.2-2.09,1.2S54.61,80,54.55,80.8a1.18,1.18,0,0,1-1.24,1,3,3,0,0,0-1.67,2.22,1.16,1.16,0,0,1-.94,1.24c-.26,0-1.63,1.76-1.31,2.61s8.35,13.25,10.7,13.38,10.25-2.55,10.25-2.55Z"/><path class="cls-1" d="M69.24,128.33s40.49-54.14,39.28-55.74"/><path class="cls-6" d="M74.13,69.32a11,11,0,0,1,1.11,6.4c-.48,3.65,22.84-15.4,22.84-15.4V58.48s-3.24.36-5.38-5.94S74.13,69.32,74.13,69.32Z"/><path class="cls-4" d="M133.12,96.61s2.63,28.83-11.46,45.2c-13.73,15.94-19.75,21.51-24.28,22.9s-15.75-9.58-16.1-12.59S57.61,107.7,56.57,106.66s17-14.24,20.78-13.55,13.94,24.42,15.33,25.82,4.26,8.17,7.4,9.84,5.13,10.78,5.13,10.78"/><path class="cls-7" d="M62.73,432.38a79.4,79.4,0,0,1,.22,8.36c-.22,1.36-14.83.85-19.8.46-.67-.05-.69-1.15-.82-1.52-.32-.94-3.69-1.52-6,.24-2.75,2.1-33.16,1.75-35-.22s-.25-4.87-.25-4.87Z"/><path class="cls-7" d="M63,436.28c.06,1.12-5.32.65-8.09.59-5.42-.1-11.34-1.14-16-.9-4.18.22-24.81,1.53-30,1.26-3.78-.19-7.1-.16-7.8-1.64-.27-.57.06-.76.55-1.78,1.75-3.68,16-7.31,23-10.4,7.24-3.18,12.1-4.9,14.16-6.11,1.61-1,24,4.15,24,4.15S62.88,434.85,63,436.28Z"/><path class="cls-8" d="M98.69,58.48S77.11,74.15,76.06,75.54,81.8,84.6,81.8,84.6L101.21,63Z"/><path class="cls-4" d="M45.34,255.59S51.7,242.9,51,240.11s-3-49.81-3-49.81Z"/><path class="cls-7" d="M56.59,449.65s-1.79,6.45.53,6.94a23,23,0,0,0,6.56,1.18c7.47-.08,17.63-3.09,26.42-5.84,11.29-3.53,10.87-4.62,10.9-6.11a.71.71,0,0,1,1.2-.44c.6.53,1,1.87,1.32,1.75a19.52,19.52,0,0,0,3.76-1.32c.25-.14.3-.45.33-.75.14-1.64-.09-6-.09-6Z"/><path class="cls-7" d="M79.12,431.5s-16.64,11.91-21,15.26a4.1,4.1,0,0,0-1.49,2.89c-.2,2.43,6.26,3.76,9.55,3.11,4.43-.87,40-10,40.9-12s.75-8.79.75-8.79l-23.22-4.13Z"/><path class="cls-9" d="M51,240.11l-4.28,17.56s-2.9,33.42-1.34,43.86-1.57,27.93-1.57,32.89.86,45.59.77,47.66c-.11,2.66-11.22,33.31-11.48,37.75s27.26,4.8,30.39,5.06S72,387.06,72,385.07c0-1.17,5-34.2,5-39.16s4.28-16.3,4.28-16.3-21.47-69.06-19.66-74.54C61.55,255.07,51.45,245,51,240.11Z"/><path class="cls-9" d="M47.76,183.29s-7.46-.27-10.77-2,2-21.34,2-21.34,9.35-3.13,9.21-6.66S47.76,183.29,47.76,183.29Z"/><path class="cls-10" d="M52.31,30.22s.1-21.4,10.18-26.63S78,0,81.41,1.46,92,11.23,94,22.86Z"/><path class="cls-9" d="M41.69,180.95s5.48-6.09,3.65-13.76S34.64,156.12,33.07,166c-1.42,9-2,15.45,5.9,15.2A19.69,19.69,0,0,0,41.69,180.95Z"/><path class="cls-11" d="M85.91,38.92s16.38-9.59,19.62-13.18c.4-.44,0-2.21,0-2.35.19-1.24-1.92-2.68-2.16-2.66s-18.17,6.5-18.17,6.5Z"/><path class="cls-9" d="M112.42,300.11c-1.26,21.74,3,43.45,1.51,61.47s-2,36.29-2.66,41.26c-.32,2.5-1.27,14.34-2.07,18-.56,2.53-.68,8.08-1.14,9.64s-21.65,4.7-24.41-1.31v-11s-.66-66.57-.66-69c0-9.66-15.76-55.22-18.69-74.55-3-19.58-3-19.58-3-19.58s13.34,14.88,40.52,8.87c8.82-1.95,9.75-4.52,12.13-4.29,1.21.11-.61-.38,0,0C115.31,260.49,112.93,291.24,112.42,300.11Z"/><path class="cls-12" d="M103.73,20.69S88.81,17.32,74.85,19.6c-12.46,2-28.63,10.36-33.4,15,0,0-1.73,3.23,2.75,4.19,4.78,1,15.36,3.13,15.36,3.13Z"/><path class="cls-13" d="M54.16,40.34,82.48,31.2l9.58,10.73s.62-2.25.9-3.29-2.43-14.16-3.82-14.36-19.09,4-20,4.73-12.43,5.26-13.4,6S53.88,35.84,54.16,40.34Z"/><path class="cls-5" d="M30.33,162.32s7.45-7.36,7.84-7.89-.72-4.25-3.14-2.23-9.27,6.79-9.59,10.12,7.31,14.75,8.22,15.14a50.79,50.79,0,0,1,4.58,3.2s3.44.65,4.23-1.37,2.22-1.63-1.57-5.68c0,0,7.28-5.55,7.34-8.78s-2.09-3.57-3.67-2.23-7.06,8.13-7.06,8.13,6.46-6.53,7.51-10-2.41-3-3-2.94-8.68,9.27-8.68,9.27,7.9-7.38,8.22-9.75-1.7-3-2.87-3.11-8.35,8.38-8.35,8.38"/><path class="cls-14" d="M91.65,51.93s5.35-2.18,5.9-4.5,2.36-9.3,1.33-10.18-2.42-2.7-4.66-1.13a8.79,8.79,0,0,0-3.45,4.78C90.77,41.52,91.65,51.93,91.65,51.93Z"/><path class="cls-15" d="M75.4,69.32S95,59.85,95,55.55s-1.91-13.32-2-16.32-2.75,1.78-4.74-5c-1.88-6.43-7.43-5-9-5.09s-17.56,8.16-19.64,8.35S54.16,40,54.16,40.34,58,52,59.5,53.13s4.1,6.66,4.72,7.57S68.74,69.38,75.4,69.32Z"/></g><g id="suspect_3"><path class="cls-1" d="M114,259.65s10.25-4.68,16.68-2.83"/></g></g></svg>