<svg xmlns="http://www.w3.org/2000/svg" viewBox="0 0 135.12 494.08"><defs><style>.cls-1{fill:#303030;}.cls-1,.cls-2,.cls-8{stroke:#494848;}.cls-1,.cls-2,.cls-21,.cls-3,.cls-5,.cls-7,.cls-8{stroke-miterlimit:10;}.cls-11,.cls-2{fill:#3d3d3d;}.cls-18,.cls-3{fill:#898989;}.cls-3{stroke:#434343;}.cls-4,.cls-7{fill:#9e9d9e;}.cls-21,.cls-5,.cls-8{fill:none;}.cls-5,.cls-7{stroke:#3a3a3a;}.cls-6{fill:#686868;}.cls-9{fill:#494848;}.cls-10{fill:#414141;}.cls-12{fill:#dfdfde;}.cls-13{fill:#c2c1c0;}.cls-14{fill:#2d2d2d;}.cls-15{fill:#0e0e0e;}.cls-16{fill:#30302f;}.cls-17{fill:#353535;}.cls-19{fill:#7f7f7f;}.cls-20{fill:#383838;}.cls-21{stroke:#515251;}</style></defs><title>Asset 17</title><g id="Layer_2" data-name="Layer 2"><g id="suspect_4"><path class="cls-1" d="M31.1,462s-1,17.68,3.6,24.81,11.92,8.74,15.54,4.19,7.75-12,5.37-29-5.37-22-5.37-22H35.58Z"/><path class="cls-1" d="M73.34,437.76s-2.35,12-1,14.38,3.73,4.11,4.56,5.08.79-1.43,1.86-1.13A1.58,1.58,0,0,1,80,457.76s-1.08.7.24,3.38c.33.67,20.2,19.33,29.6,21.21,9.9,2,13.43-7.2,7.49-15.19-5.72-7.68-11.84-17.22-14.87-20.66s-8.5-11.26-9.49-15.88S73.34,437.76,73.34,437.76Z"/><path class="cls-2" d="M23.32,262,29.8,432.67v1.22l.65,14.22,10.75,5.66L55.59,448l1.94-16.82v-1.07L65,280c.08-2.49-.92-3.87,1.81-3.5l.91,2,3.68,144.81-1,1.22,1,13.31,18.4,7.19,9.33-5.2,1.17-18.2-1-.46,12.31-161.81"/><path class="cls-3" d="M115.64,252.39s.08,3.83-1.17,4.33,2.92,2.17,3.67,2.17,4.33-1.75,4.42-3.25a27.62,27.62,0,0,0-.75-6.08c-.33-1.17,1.52-2.67.76-1.33s.16,8.17.49,7.75,2.67-9,3.75-10.5a6.06,6.06,0,0,0,1-3.42s-2.33,6.58-1.83,6.83,4.42-4.58,5.08-7.17-.83-10-.83-10-14.58-9.58-18.92-2.08c0,0,.33.83-.75,4.25s-.5,13.33,0,15.5,1.08,5.75,1.58,5.92,1.92,1.42,2.75,0-.08-13.08-1.75-14.58"/><path class="cls-3" d="M19.93,257s-.08,3.83,1.17,4.33-2.92,2.17-3.67,2.17-4.33-1.75-4.42-3.25a27.62,27.62,0,0,1,.75-6.08c.33-1.17-1.52-2.67-.76-1.33s-.16,8.17-.49,7.75-2.67-9-3.75-10.5a6.06,6.06,0,0,1-1-3.42s2.33,6.58,1.83,6.83-4.42-4.58-5.08-7.17.83-10,.83-10,14.58-9.58,18.92-2.08c0,0-.33.83.75,4.25s.5,13.33,0,15.5-1.08,5.75-1.58,5.92-1.92,1.42-2.75,0,.08-13.08,1.75-14.58"/><path class="cls-4" d="M50.45,263.13s-8.25.13-11.62,0-8.12.86-11.75.49a54.26,54.26,0,0,1-6.93-1.3c-1.2-.68,4.27-54.08,4.67-66.44.08-2.57,15.94-69,18.13-78.29.16-.69,22.58,27.33,22.58,27.33"/><path class="cls-5" d="M45.5,215.09s-19.12,1.42-25.64-1.94"/><path class="cls-6" d="M41,214.85s-12.41.52-15.69-.77-3.07-1.29-3.07-1.29,11.94.16,13.21.42S41.11,214.09,41,214.85Z"/><path class="cls-7" d="M53.66,73.34S46.32,81,45,81.68,13,94,12.66,95.68s-11,53.33-11,55.67S0,193.18.66,195.18s4.17,38.08,2.17,40.33,22.12-2.5,22.5-2.75S25,215.35,24.55,202c-.25-8.12-.45-14.79-.35-15.26.25-1.25,3-35.12,2.88-37.62s-1.25,28.5-1.25,28.5,1,12.79-1.42,19.54"/><path class="cls-8" d="M22.22,233.44s-2.55,28.69-2.07,28.88a40.13,40.13,0,0,0,9,1.38c9.05.38,21.68-.09,21.68-.09"/><path class="cls-4" d="M50.45,263.61s41,1.5,45.62,0,17.74-1.12,18.24-2.12-1.62-49.07-1.51-55.81c0-.52-16.13-73.5-17.74-80.67-.08-.38-34,54.17-34,54.17"/><path class="cls-7" d="M82.55,72.13s7.5,9.25,9,9.63,31,11.63,31.5,12.5,9.88,46.75,10.13,63.12,3.13,64.25,0,76.13c0,0-19.37-5-21.75-3,0,0,1.23-15.22,1.36-22.62a22,22,0,0,0-.11-3.63c-.62-3-1.62-24.75-1.87-27.5s-.25-26.75.25-29.87-.87,30.13-.87,30.13-.87,20.58,2.38,28.33"/><path class="cls-8" d="M15.59,93.85S29,122.52,27.08,149.13"/><path class="cls-8" d="M120.58,92.41s-10.26,32.35-9.26,54"/><path class="cls-2" d="M50.83,264.27s0-68,1.5-71.14,23.12-39.12,27.25-44,26.13-43.75,26.63-45-19-.62-19-.62l13.63-1.87s-6-17.37-9.25-19.75-8.75-9.62-8.75-9.62,0,22.88-4.31,31.62a179.62,179.62,0,0,0-8.87,25.19c-7.12,25.31-15.14,60.18-15.14,60.18"/><path class="cls-2" d="M71.57,123.13s-17.21-32.5-17.92-48.5c0,0-6.33,6.63-9.21,8s-6,19.5-6,19.5,8.25,1.25,9.13,1.25-14.75-.12-14.87.38,33.38,41.16,33.38,41.16"/><path class="cls-9" d="M63.32,92.41s2.75.91,2.87,1.44,2.13-2,4.63-.72S70.2,91,75.2,90.51A6.34,6.34,0,0,0,71.57,86,6.51,6.51,0,0,0,63.32,92.41Z"/><path class="cls-10" d="M65.95,94.88a6,6,0,0,1,.75,2.63c-.12,1,3-.76,4.9-.26,0,0-.44-3.38,0-3.84s-5.75-2.13-5.37.45S65.95,94.88,65.95,94.88Z"/><path class="cls-9" d="M66.7,97.51s-4.64,5.46-4.26,6.36S71.57,124,71.57,124l6.63-19.43s-1-4.32-2.38-5.44a10,10,0,0,0-4.25-2.25A43.36,43.36,0,0,0,66.7,97.51Z"/><path class="cls-11" d="M46.61,24.47s-.34-11.21,0-12.08S52.2-.37,65.2,0,81.71,7.13,81.71,7.13s3.49,3.6,3.61,7.49S47.26,25.93,46.61,24.47Z"/><path class="cls-12" d="M54.32,73.34s2.5,7.54,9,9.54,5.94,2.89,5.94,2.89-8.5,10.33-8.94,11.11S54.2,80.8,54.32,73.34Z"/><path class="cls-12" d="M82.2,71s.42,8.5-10.6,13.75l-2.33,1s11.37,8.15,11.13,12S83.45,72.38,82.2,71Z"/><path class="cls-13" d="M59.73,97.25l2.84,6,4.13-5.69s.1-3.15-.5-3.66-2.87-2.08-2.87-1.44S59.73,97.25,59.73,97.25Z"/><path class="cls-14" d="M98.57,18.66s-12.08-8.78-34.35-.9-27,10.91-28.15,13.46S98.57,18.66,98.57,18.66Z"/><path class="cls-15" d="M44,46.76s-16.53-5.12-9.66-13.37,36-16.5,45.62-17.5S104.82,17.26,103.07,27,91,41.76,89.7,42.26,44,46.76,44,46.76Z"/><path class="cls-13" d="M75.85,90.51a2.91,2.91,0,0,0-2.57,0,5.49,5.49,0,0,0-1.71,2.89c-.87,3-.62,2.23,0,3.48s5.63,2.51,6.63,7.69l2.5-7.7s-1.1-1.63-2.18-3.2A15.57,15.57,0,0,0,75.85,90.51Z"/><path class="cls-16" d="M69.27,85.12S80.45,70.26,81.32,69.88s0-4.5,0-4.5-9.08,9.87-9.73,9.87-7.58.38-9.17-.62-7.85-6.87-8.1-7.5.67,4.92,0,6.21S58.72,83.74,69.27,85.12Z"/><path class="cls-17" d="M50.83,46.13s-1.5-5.37-5.38-3.37,1.13,8.38,1.38,9.25.88,5.38,4,5.25S50.83,46.13,50.83,46.13Z"/><path class="cls-6" d="M81.67,69.22a5.6,5.6,0,0,0,.64,1.58c.29.27-1.07,5.31-2,6.46a21.47,21.47,0,0,1-2.91,3.61,27.7,27.7,0,0,1-4.82,3.39c-.75.23-3.09,1.55-3.33,1.52s-5-2-5-2l5.05,1.36S81.22,69.35,81.67,69.22Z"/><path class="cls-16" d="M84.82,47.26s4.13-5,4.88-5,.25-3.37,1.13-4.87.25-12.12-10.87-12.87-32.37,9.12-33.5,15a26,26,0,0,0-1,3.25c0,.5,2-1.37,3.88,1.75S84.82,47.26,84.82,47.26Z"/><path class="cls-18" d="M84.44,56.19a4.08,4.08,0,0,0,4.89-1.81c2.13-3,4.13-5.87,3.75-8.12s-.62-4.62-3.37-4S86.91,44.79,85.87,46,84.44,56.19,84.44,56.19Z"/><path class="cls-19" d="M54.32,67.77S62,74.91,63,75.25a34.47,34.47,0,0,0,8.61,0c1.85-.37,8.85-9.37,9.73-9.87s4.63-13.75,4.75-17.25-1.5-3.37-1.37-4.5,1.38-3,.25-4.25,2.13-6.62,2.13-7.37-5.56-5.62-11.22-5.62-23.78,6.37-25,14.12.12,16.25.62,17.5S53.26,66.71,54.32,67.77Z"/><path class="cls-8" d="M23.76,233.63"/><path class="cls-8" d="M51.39,263.62s42,.72,44,.15,18.84-1.36,18.95-2.28-2-31.35-2-31.35"/><path class="cls-20" d="M67.27,59.49a3.09,3.09,0,0,1,2.34-.34A12.59,12.59,0,0,1,72,60.56c.16.2,3.7,1,3.95-.76s-1.48-1.26-1.48-1.26,0-1.35,1.18-1.28a2.06,2.06,0,0,1,2.05,1.82c0,.94-.39,3.28-1.51,3.75-.6.26-5.68,1.3-7.69.08l-2-1.21Z"/><path class="cls-20" d="M67.36,59.49A3.09,3.09,0,0,0,65,59.15a12.59,12.59,0,0,0-2.43,1.41c-.16.2-3.7,1-3.95-.76s1.48-1.26,1.48-1.26,0-1.35-1.18-1.28a2.06,2.06,0,0,0-2.05,1.82c0,.94.39,3.28,1.51,3.75.6.26,5.68,1.3,7.69.08l2-1.21Z"/><polyline class="cls-21" points="57.53 430.6 40.25 437.56 29.8 433.89"/><polyline class="cls-21" points="70.36 424.56 89.58 428.69 100.29 421.65"/><path class="cls-5" d="M83.52,215s19.09,1.78,25.67-1.45"/><path class="cls-6" d="M88,214.86s12.39.75,15.7-.47,3.1-1.23,3.1-1.23-11.94-.06-13.21.17S87.93,214.1,88,214.86Z"/><line class="cls-8" x1="40.25" y1="437.56" x2="42.75" y2="263.99"/><line class="cls-8" x1="89.58" y1="428.69" x2="93.12" y2="263.99"/></g></g></svg>