<svg xmlns="http://www.w3.org/2000/svg" viewBox="0 0 135.4 444.56"><defs><style>.cls-1{fill:#939393;}.cls-2,.cls-20,.cls-6{fill:none;}.cls-2,.cls-3{stroke:#545454;}.cls-19,.cls-2,.cls-20,.cls-21,.cls-23,.cls-3,.cls-5,.cls-6,.cls-7{stroke-miterlimit:10;}.cls-3,.cls-4,.cls-5{fill:#8e8e8e;}.cls-5{stroke:#3a3a3a;}.cls-6,.cls-7{stroke:#494848;}.cls-10,.cls-7{fill:#3d3d3d;}.cls-8{fill:#494848;}.cls-9{fill:#414141;}.cls-11{fill:#dfdfde;}.cls-12{fill:#f7f8f8;}.cls-13{fill:#2d2d2d;}.cls-14{fill:#0e0e0e;}.cls-15{fill:#30302f;}.cls-16{fill:#353535;}.cls-17{fill:#686868;}.cls-18{fill:#898989;}.cls-19{fill:#d8d8d8;}.cls-19,.cls-20,.cls-21{stroke:#9e9e9e;}.cls-21{fill:#eaeaea;}.cls-22{fill:#d3d3d3;}.cls-23{fill:#a3a3a3;stroke:#6b6b6b;}.cls-24{fill:#383838;}</style></defs><title>Asset 4</title><g id="Layer_2" data-name="Layer 2"><g id="Layer_1-2" data-name="Layer 1"><polyline class="cls-1" points="25.32 261.51 31.57 401.01 31.57 402.01 32.2 413.63 42.57 418.26 56.45 413.51 58.32 399.76 58.32 398.88 67.32 265.63 71.7 393.38 70.7 394.38 71.7 405.26 89.45 411.13 98.45 406.88 99.57 392.01 98.57 391.63 110.45 259.38"/><polyline class="cls-2" points="57.66 399.93 42.07 405.01 45.57 265.01"/><line class="cls-2" x1="41.66" y1="405.01" x2="31.57" y2="402.01"/><polyline class="cls-2" points="70.7 394.38 88.82 397.76 90.07 267.01"/><line class="cls-3" x1="99.57" y1="392.01" x2="89.24" y2="397.76"/><path class="cls-4" d="M50.45,263.13s-8.25.13-11.62,0-8.12-.83-11.75-1.21a8.67,8.67,0,0,1-2.84-.67c-1.2-.68.17-53,.58-65.38.08-2.57,15.94-69,18.13-78.29.16-.69,22.58,27.33,22.58,27.33"/><path class="cls-5" d="M53.66,73.34S46.32,81,45,81.68,13,94,12.66,95.68s-11,53.33-11,55.67S0,193.18.66,195.18s4.17,38.08,2.17,40.33,22.12-2.5,22.5-2.75S25,215.35,24.55,202c-.25-8.12-.45-14.79-.35-15.26.25-1.25,3-35.12,2.88-37.62s-1.25,28.5-1.25,28.5,1,12.79-1.42,19.54"/><path class="cls-4" d="M50.45,263.61s41,1.5,45.62,0,14.88-3.87,15.38-4.87,1.25-46.31,1.36-53.05c0-.52-16.13-73.5-17.74-80.67-.08-.38-34,54.17-34,54.17"/><path class="cls-5" d="M82.82,71.63s7.5,9.25,9,9.63,31,11.63,31.5,12.5,9.87,46.75,10.12,63.12,3.13,64.25,0,76.13c0,0-19.37-5-21.75-3,0,0,1.23-15.22,1.36-22.62a22,22,0,0,0-.11-3.63c-.62-3-1.62-24.75-1.87-27.5s-.25-26.75.25-29.87-.87,30.13-.87,30.13-.87,20.58,2.38,28.33"/><path class="cls-6" d="M15.59,93.85S29,122.52,27.08,149.13"/><path class="cls-7" d="M50.83,264.27s0-68,1.5-71.14,23.12-39.12,27.25-44,26.13-43.75,26.63-45-19-.62-19-.62l13.63-1.87s-6-17.37-9.25-19.75-8.75-9.62-8.75-9.62,0,22.88-4.31,31.62-24,85.37-24,85.37"/><path class="cls-7" d="M71.57,123.13s-17.21-32.5-17.92-48.5c0,0-6.33,6.63-9.21,8s-6,19.5-6,19.5,8.25,1.25,9.13,1.25-14.75-.12-14.87.38,33.38,41.16,33.38,41.16"/><path class="cls-8" d="M63.32,92.41s2.75.91,2.87,1.44,2.13-2,4.63-.72S70.2,91,75.2,90.51A6.34,6.34,0,0,0,71.57,86,6.51,6.51,0,0,0,63.32,92.41Z"/><path class="cls-9" d="M65.95,94.88a6,6,0,0,1,.75,2.63c-.12,1,3-1.12,4.88-.62,0,0-.42-3,0-3.48s-5.75-2.13-5.37.45S65.95,94.88,65.95,94.88Z"/><path class="cls-8" d="M66.7,97.51s-4.64,5.46-4.26,6.36S71.57,124,71.57,124l6.63-19.43s-1-4.32-2.38-5.44a10,10,0,0,0-4.25-2.25A43.36,43.36,0,0,0,66.7,97.51Z"/><path class="cls-10" d="M46.61,24.47s-.34-11.21,0-12.08S52.2-.37,65.2,0,81.71,7.13,81.71,7.13s3.49,3.6,3.61,7.49S47.26,25.93,46.61,24.47Z"/><path class="cls-11" d="M54.32,73.34s2.5,7.54,9,9.54,5.94,2.89,5.94,2.89-8.5,10.33-8.94,11.11S54.2,80.8,54.32,73.34Z"/><path class="cls-11" d="M82.2,71s.42,8.5-10.6,13.75l-2.33,1S80.18,93,79.95,96.88,83.45,72.38,82.2,71Z"/><path class="cls-12" d="M60.32,96.88l2.1,6,4.28-5.37s.1-3.15-.5-3.66-2.87-2.08-2.87-1.44S60.32,96.88,60.32,96.88Z"/><path class="cls-13" d="M98.57,18.66s-12.08-8.78-34.35-.9-27,10.91-28.15,13.46S98.57,18.66,98.57,18.66Z"/><path class="cls-14" d="M44,46.76s-16.53-5.12-9.66-13.37,36-16.5,45.62-17.5S104.82,17.26,103.07,27,91,41.76,89.7,42.26,44,46.76,44,46.76Z"/><path class="cls-12" d="M75.86,90.89s-3.41-.47-4.28,2.51-.62,2.23,0,3.48,5.63,2.51,6.63,7.69l1.75-7.7A19.09,19.09,0,0,0,75.86,90.89Z"/><path class="cls-15" d="M69.27,85.12S80.45,70.26,81.32,69.88s0-4.5,0-4.5-9.08,9.87-9.73,9.87-7.58.38-9.17-.62-7.85-6.87-8.1-7.5.67,4.92,0,6.21S58.72,83.74,69.27,85.12Z"/><path class="cls-16" d="M50.83,46.13s-1.5-5.37-5.38-3.37,1.13,8.38,1.38,9.25.88,5.38,4,5.25S50.83,46.13,50.83,46.13Z"/><path class="cls-17" d="M81.67,69.22a5.6,5.6,0,0,0,.64,1.58c.29.27-1.07,5.31-2,6.46a21.47,21.47,0,0,1-2.91,3.61,27.7,27.7,0,0,1-4.82,3.39c-.75.23-3.09,1.55-3.33,1.52s-5-2-5-2l5.05,1.36S81.22,69.35,81.67,69.22Z"/><path class="cls-15" d="M84.82,47.26s4.13-5,4.88-5,.25-3.37,1.13-4.87.25-12.12-10.87-12.87-32.37,9.12-33.5,15a26,26,0,0,0-1,3.25c0,.5,2-1.37,3.88,1.75S84.82,47.26,84.82,47.26Z"/><path class="cls-18" d="M84.44,56.19a4.08,4.08,0,0,0,4.89-1.81c2.13-3,4.13-5.87,3.75-8.12s-.62-4.62-3.37-4S86.91,44.79,85.87,46,84.44,56.19,84.44,56.19Z"/><path class="cls-17" d="M54.32,67.13s7.13,7.15,8.1,7.5,7.32,1,9.17.62,8.85-9.37,9.73-9.87,4.63-13.75,4.75-17.25-1.5-3.37-1.37-4.5,1.38-3,.25-4.25,2.13-6.62,2.13-7.37-5.56-5.62-11.22-5.62-23.78,6.37-25,14.12.12,16.25.62,17.5S53.26,66.07,54.32,67.13Z"/><path class="cls-6" d="M23.76,233.63"/><path class="cls-6" d="M23.76,233.63s-.48,27.25,0,27.44,27.07,2.55,27.07,2.55"/><path class="cls-6" d="M51.39,263.62s42,.72,44,.15,16-4.12,16.08-5,.9-28.6.9-28.6"/><path class="cls-19" d="M32.08,424.71s-3.25,16.12,2.44,17.75,14.19,2.25,17.07.75,5.51-5.4,4.77-13.28"/><path class="cls-19" d="M56,413.83s2.75,22.13-3.12,24S33.71,442,32,429c0,0,.25-13.5,1-14.5s10.38,4.25,10.38,4.25Z"/><path class="cls-20" d="M43.34,418.71s-9,6.74-11.3,7.12"/><path class="cls-21" d="M56.57,421.68a5.48,5.48,0,0,1-2.74-.22c-1.75-.5-4.49-5.07-4.65-5"/><path class="cls-22" d="M86.34,412.58A30.31,30.31,0,0,1,84,414.72c-1.39,1.12-3,2.18-3.88,1.73-1.62-.86,11.51,8.6,12.47,8.88s8.08.75,9.24-3.06-.17-6.46-1.21-7.06S91.82,410,91.82,410s-2.93,1.87-3.61,1.74-1.78-.81-2.43-.05S86.34,412.58,86.34,412.58Z"/><path class="cls-20" d="M34.52,424.71s2.94,9.75,6.94,10.12,6.88.88,10.13-1.5,5-6.78,5-6.78"/><path class="cls-19" d="M78.88,419.8s.58,8.41,2.33,9.53,8.25,7.23,16.63,5.05,8.5-4.43,8.38-5.43a11,11,0,0,0-1.75-3.13"/><path class="cls-19" d="M86.34,411.08S84,413.33,84,414.71s-3.87,1.74-3.87,1.74,9.75,9.75,15.38,9.38,8.75-3.87,5.13-10.62c0,0-6.38-3.62-7.75-5s3.75-2.75,3.75-2.75,4,4,4.25,6.38l.25,2.38s1.88,7.75,3,8.49-.5,3.75-1.62,4.25-14,3.88-18.13-1.37-6.12-9.62-7.75-10.12a7.47,7.47,0,0,0-2.75-.37S71.34,415.83,71,415s.25-6.12.75-6.12.77-3.37.77-3.37,14.6,6.38,15.73,6.25,4.46-2.27,4.46-2.27"/><path class="cls-20" d="M71.71,408.83s6.8,3.18,6.75,6.75l-.05,3.57"/><path class="cls-23" d="M19.53,255.19s-.08,3.83,1.17,4.33-2.92,2.17-3.67,2.17-4.33-1.75-4.42-3.25a27.62,27.62,0,0,1,.75-6.08c.33-1.17-1.52-2.67-.76-1.33s-.16,8.17-.49,7.75-2.67-9-3.75-10.5a6.06,6.06,0,0,1-1-3.42s2.33,6.58,1.83,6.83-4.42-4.58-5.08-7.17.83-10,.83-10,14.58-9.58,18.92-2.08c0,0-.33.83.75,4.25s.5,13.33,0,15.5-1.08,5.75-1.58,5.92-1.92,1.42-2.75,0S20.37,245,22,243.52"/><path class="cls-24" d="M67.27,59.49a3.09,3.09,0,0,1,2.34-.34A12.59,12.59,0,0,1,72,60.56c.16.2,3.7,1,3.95-.76s-1.48-1.26-1.48-1.26,0-1.35,1.18-1.28a2.06,2.06,0,0,1,2.05,1.82c0,.94-.39,3.28-1.51,3.75-.6.26-5.68,1.3-7.69.08l-2-1.21Z"/><path class="cls-24" d="M67.36,59.49A3.09,3.09,0,0,0,65,59.15a12.59,12.59,0,0,0-2.43,1.41c-.16.2-3.7,1-3.95-.76s1.48-1.26,1.48-1.26,0-1.35-1.18-1.28a2.06,2.06,0,0,0-2.05,1.82c0,.94.39,3.28,1.51,3.75.6.26,5.68,1.3,7.69.08l2-1.21Z"/><path class="cls-23" d="M118.61,252.88s.08,3.83-1.17,4.33,2.92,2.17,3.67,2.17,4.33-1.75,4.42-3.25a27.62,27.62,0,0,0-.75-6.08c-.33-1.17,1.52-2.67.76-1.33s.16,8.17.49,7.75,2.67-9,3.75-10.5a6.06,6.06,0,0,0,1-3.42s-2.33,6.58-1.83,6.83,4.42-4.58,5.08-7.17-.83-10-.83-10-14.58-9.58-18.92-2.08c0,0,.33.83-.75,4.25s-.5,13.33,0,15.5,1.08,5.75,1.58,5.92,1.92,1.42,2.75,0-.08-13.08-1.75-14.58"/></g></g></svg>