<svg xmlns="http://www.w3.org/2000/svg" viewBox="0 0 612 792"><defs><style>.cls-1{fill:#e6e7e8;}.cls-2{fill:#b8babc;}.cls-3{font-size:12px;fill:#231f20;font-family:PTMono-Regular, PT Mono;}</style></defs><title>interagation</title><g id="Layer_1" data-name="Layer 1"><polygon class="cls-1" points="612 792 0 792 0 45.13 37.09 34.74 33.2 0 612 0 612 792"/><polygon class="cls-2" points="33.2 0 0 45.13 37.09 34.74 33.2 0"/></g><g id="Layer_3" data-name="Layer 3"><text class="cls-3" transform="translate(64 66)">PERSON INTERVIEWED<tspan x="0" y="14.4">DATE OF INTERVIEW</tspan><tspan x="0" y="28.8">TIME OF INTERVIEW</tspan><tspan x="0" y="43.2">CASE NUMBER</tspan><tspan x="0" y="57.6">INTERVIEW CONDUCTED BY</tspan><tspan x="0" y="72">TRANSCRIBED BY</tspan><tspan x="0" y="86.4"> </tspan></text></g><g id="theodor"><text class="cls-3" transform="translate(65 176)">Officer: What was your role at Raytheon Technologies?</text><text class="cls-3" transform="translate(65 200.87)">Theodore: Head of sales.</text><text class="cls-3" transform="translate(64 225.5)">Officer: What would that entail?</text><text class="cls-3" transform="translate(65 251)">Theodore: I made sure any potential contracts came through.</text><text class="cls-3" transform="translate(64 278)">Officer: Raytheon just signed a big contract with the government,<tspan x="0" y="14.4">were you involved in that?</tspan></text><text class="cls-3" transform="translate(65 323)">Theodore: Yes, I went to Washington, <tspan x="0" y="14.4">D.C. myself to have them sign the contract.</tspan></text><text class="cls-3" transform="translate(65 368)">Officer: You must have a lot of authority around here then, <tspan x="0" y="14.4">plenty of access to company information.</tspan></text><text class="cls-3" transform="translate(64 413.49)">Theodore: I know what I need to know to do my job.</text><text class="cls-3" transform="translate(65 442.99)">Officer: So you felt that Mr. DeVaul was running the company <tspan x="0" y="14.4">well? Not jeopardizing any important information?</tspan></text><text class="cls-3" transform="translate(65 492.49)">Theodore: If you’re referring to Alice, that’s none of my <tspan x="0" y="14.4">business. I come to work at 9 and I leave at 5, </tspan><tspan x="0" y="28.8">I’m not involved in the office politics.</tspan></text><text class="cls-3" transform="translate(65 552.67)">Officer: Sure, maybe you’re not involved in the office<tspan x="0" y="14.4">politics but surely you have an interest in the politics </tspan><tspan x="0" y="28.8">of United States. Considering what’s happening and all.</tspan></text><text class="cls-3" transform="translate(65 610.67)">Theodore: My country of origin has nothing to do with how <tspan x="0" y="14.4">I do my job, I’m loyal to this company and this country.</tspan></text><g id="Layer_10_copy_3" data-name="Layer 10 copy 3"><text class="cls-3" transform="translate(416.8 66)">Theodore Tresler<tspan x="50.4" y="14.4">2/25/1943</tspan><tspan x="72" y="28.8">2:30pm</tspan><tspan x="57.6" y="43.2">00345623</tspan><tspan x="-36" y="57.6">Officer Richard Smith</tspan><tspan x="28.8" y="72">Jane Summers</tspan><tspan x="108" y="86.4"> </tspan></text></g></g></svg>