<svg xmlns="http://www.w3.org/2000/svg" viewBox="0 0 122.51 439.29"><defs><style>.cls-1{fill:#dbdad9;}.cls-1,.cls-5{stroke:#595858;}.cls-1,.cls-3,.cls-4,.cls-5,.cls-7,.cls-8,.cls-9{stroke-miterlimit:10;}.cls-2,.cls-8{fill:#b4b4b5;}.cls-3{fill:#2e2e2e;}.cls-3,.cls-4,.cls-9{stroke:#020202;}.cls-4{fill:none;}.cls-15,.cls-5{fill:#767576;}.cls-6{fill:#545554;}.cls-7{fill:#050606;stroke:#545554;}.cls-8{stroke:#969696;}.cls-9{fill:#212121;}.cls-10{fill:#282827;}.cls-11{fill:#151515;}.cls-12{fill:#212222;}.cls-13{fill:#333;}.cls-14{fill:#717272;}</style></defs><title>Asset 2</title><g id="Layer_2" data-name="Layer 2"><g id="Layer_1-2" data-name="Layer 1"><path class="cls-1" d="M43.77,62.88l-6.06,3.94s.5,2.69,2.13,2.25,5.75-3.75,5.75-3.75"/><polygon class="cls-2" points="66.39 72.88 73.39 81.19 67.89 87.6 64.09 90.24 66.39 72.88"/><path class="cls-3" d="M68.44,87.93s22-26.45,23.33-26.72,5,8.39,7.67,9.39,21.67,7.33,22.33,15.33-1.67,32.31-5.33,42-14.33,42.89-14.33,46.28,11.33,32.73,13,47.39,4.33,23.33,4.33,24.33-33.67,11-49,8-27.33-20.33-28-26.67-2-44.33-2.33-48.33,1.33-33.08,0-36.71-2-28.29,1.67-33.29,4.33-10.34,5-9S68.44,87.93,68.44,87.93Z"/><path class="cls-4" d="M118.52,81.67s-19-7-24.67,8.34-4.3,22.47-5,25"/><polygon class="cls-3" points="66.39 72.88 60.05 78.89 60.05 97.01 64.09 90.24 66.39 72.88"/><polygon class="cls-4" points="41.19 150.67 60.05 122.49 55.89 115 41.19 150.67"/><path class="cls-2" d="M49.19,105.76s-3.67,11-3.67,14.31v19l10.37-24Z"/><path class="cls-5" d="M64.09,91.07s-1.26-17-3-18.87S49.83,57.38,48.52,57.07a1.71,1.71,0,0,0-2,2.31c.63,1.31,7.88,11.56,7.88,11.56s-7.25-12.19-9.31-11.25-1.06,2.38-.94,2.88S50.83,73.33,50.71,74s-1.06,1.15-2,1.15-2.06,1.44-2.12,2.19a1.13,1.13,0,0,1-1.19,1,2.87,2.87,0,0,0-1.6,2.13,1.11,1.11,0,0,1-.9,1.19c-.25,0-1.56,1.69-1.25,2.5s8,12.69,10.25,12.81,9.81-2.44,9.81-2.44Z"/><path class="cls-6" d="M65.33,66.38a10.51,10.51,0,0,1,1.06,6.13C65.94,76,88.27,57.75,88.27,57.75V56s-3.1.34-5.15-5.69S65.33,66.38,65.33,66.38Z"/><path class="cls-3" d="M121.83,92.52s2.52,27.61-11,43.29C97.7,151.07,91.93,156.4,87.6,157.73s-15.08-9.18-15.42-12.05-22.67-42.54-23.67-43.54,16.24-13.64,19.9-13,13.35,23.39,14.68,24.72,4.08,7.82,7.08,9.43,4.92,10.32,4.92,10.32"/><path class="cls-7" d="M54.94,415.09s.67,6.42,0,8-16.75,0-18.5-1.9S25.1,419.75,24,420s-21.4,1.16-22.87-1.09,0-5.33,0-5.33Z"/><path class="cls-7" d="M54.18,406.09s.58,6.58,0,9.25-2.16,3.92-6.83,3.5S32,415.67,28.44,416.09s-16.33,2-20.83,1.42c-3.25-.42-5.8-.8-6.34-2.45a3.67,3.67,0,0,1,.34-2.55c1.67-3.91,14.83-6.91,20.17-11.25s11.5-3.33,12.58-4.67,20.09,6.08,20.09,6.08Z"/><path class="cls-8" d="M88.85,56S68.19,71,67.19,72.34,72.68,81,72.68,81L91.26,60.29Z"/><path class="cls-3" d="M37.77,244.75s6.08-12.15,5.38-14.82-2.85-47.7-2.85-47.7Z"/><path class="cls-7" d="M58.32,432.5s-1.39,5.08.53,6,20.83-.17,29.5-6.58,9.33-5.58,9.25-7.08.67.42,1.25.42,4.58-.08,4.58-1.75-.54-6-.54-6Z"/><path class="cls-7" d="M77,411.75S63.1,425.17,59.44,428.92s2.58,6.5,6.5,5.75,36-13.92,36.67-16,0-8.92,0-8.92l-21-2.17Z"/><path class="cls-9" d="M113.93,255.39s-4.41,29.61-5.41,30.86,3.5,42.75,1.88,60-.67,38.75-2,40.75S104,400.75,104,403.25s.5,7.5,0,9-23.5,4.5-26.5-1.25V400.5s6.25-40.75,7.5-42.75-25.27-76-28.5-94.75l-3.23-18.75s14.48,14.25,44,8.5c9.57-1.87,10.59-4.32,13.16-4.11,1.32.11,2.93-1.15,3.45-.6C115.5,249.75,113.93,255.39,113.93,255.39Z"/><path class="cls-9" d="M43.15,229.94l-4.1,16.82s-2.78,32-1.28,42-1.5,26.75-1.5,31.5,2,44,1.5,46.5S26.27,392.25,26,396.5s27,8.75,30,9,8.25-36.25,7.25-36.75S68,336,68,331.25s4.1-15.61,4.1-15.61-20.56-66.13-18.83-71.38C53.29,244.26,43.62,234.61,43.15,229.94Z"/><path class="cls-9" d="M40.08,175.53s-7.14-.25-10.31-2,1.89-20.43,1.89-20.43,9-3,8.82-6.38S40.08,175.53,40.08,175.53Z"/><path class="cls-10" d="M44.44,28.94s.1-20.5,9.75-25.5S69.06,0,72.31,1.39s10.17,9.36,12,20.5Z"/><path class="cls-9" d="M34.27,173.28s5.25-5.83,3.5-13.18S27.52,149.5,26,159c-1.36,8.61-1.9,14.79,5.65,14.56A18.86,18.86,0,0,0,34.27,173.28Z"/><path class="cls-11" d="M77.19,37.27s15.9-9.18,19-12.62c.39-.43,0-2.12,0-2.25.18-1.19-1.86-2.57-2.1-2.55s-17.63,6.22-17.63,6.22Z"/><path class="cls-12" d="M94.48,19.82s-14.48-3.23-28-1C54.37,20.72,38.68,28.69,34,33.14c0,0-1.68,3.09,2.67,4,4.64,1,14.91,3,14.91,3Z"/><path class="cls-13" d="M46.21,38.63l26.47-8.75,9,10.28s.58-2.15.84-3.15S80.2,23.44,78.91,23.25s-17.84,3.87-18.68,4.53-11.61,5-12.52,5.79S45.95,34.32,46.21,38.63Z"/><path class="cls-5" d="M23.39,155.44s7.13-7,7.5-7.56-.69-4.07-3-2.13-8.87,6.5-9.19,9.69,7,14.13,7.88,14.5A48.63,48.63,0,0,1,31,173s3.3.63,4-1.31,2.13-1.56-1.5-5.44c0,0,7-5.32,7-8.41s-2-3.42-3.51-2.13-6.76,7.79-6.76,7.79,6.19-6.25,7.19-9.56-2.31-2.87-2.87-2.81S26.27,160,26.27,160s7.56-7.06,7.87-9.33-1.62-2.85-2.75-3-8,8-8,8"/><path class="cls-14" d="M81.05,51.32S86.18,49.23,86.7,47,89,38.1,88,37.25s-2.32-2.59-4.46-1.08a8.42,8.42,0,0,0-3.3,4.57C80.21,41.35,81.05,51.32,81.05,51.32Z"/><path class="cls-15" d="M66.06,66.38s18.36-9.06,18.3-13.19-1.78-12.76-1.86-15.63-2.57,1.71-4.43-4.81c-1.76-6.16-6.94-4.75-8.43-4.87s-16.41,7.81-18.36,8-5.06,2.44-5.06,2.75,3.57,11.13,5,12.25,3.83,6.38,4.41,7.25S59.83,66.44,66.06,66.38Z"/></g></g></svg>