<svg xmlns="http://www.w3.org/2000/svg" viewBox="0 0 165.83 425.65"><defs><style>.cls-1{fill:#a5a4a4;}.cls-2{fill:#353535;}.cls-3{fill:#979696;}.cls-4{fill:#515252;}.cls-4,.cls-6{stroke:#434343;}.cls-4,.cls-6,.cls-7{stroke-miterlimit:10;}.cls-5{fill:#afafb0;}.cls-6{fill:#3d3d3d;}.cls-7{fill:#444545;stroke:#353535;}.cls-8{fill:#676767;}.cls-9{fill:#9b9b9b;}.cls-10{fill:#343434;}.cls-11{fill:#595a5a;}</style></defs><title>Asset 3</title><g id="Layer_2" data-name="Layer 2"><g id="Layer_1-2" data-name="Layer 1"><path class="cls-1" d="M41,326.68s-2,50.3-3.67,55.64-9,27.33-12,28.33,11.67,3,13.67,1.67,13.67-23,14.67-25.67-2-4,0-13,10.39-36.57,11.67-43l1.27-6.43Z"/><path class="cls-1" d="M83.22,335.32S87.38,363,85.38,368.5s-2.16,7.82-2.16,7.82,13.91,15.37,16.91,21.37S111.38,406.15,117,402c0,0-12.33-13.33-14-23.33s0-45,0-45Z"/><polygon class="cls-2" points="66.65 324.23 66.65 328.32 45.28 326.65 66.65 324.23"/><path class="cls-3" d="M142.11,102.38s22,20.13,23.38,26-1.87,7.88-1.87,7.88-19.77,11.29-22.5,12.38c-3,1.19-13,4.06-15.33,5.31-1.67.88-6.55,2.19-6.92,7.19s1.74,21.52-.44,24.07-11.81-22.07-11.81-22.07l1.5-10.12a64.83,64.83,0,0,1,13.13-7.5c6.88-2.75,17.13-15.5,20.75-16.37s.38-2.75-4.5-5.75-9.87-6.5-9.87-6.5l10.25-14.5Z"/><path class="cls-2" d="M80.38,324.23s1.35,10.76,2.84,11.09S103,333.65,103,333.65v-9.43Z"/><path class="cls-4" d="M45.28,196.57s-11.56,121.08-8.9,127.75c0,0,6.46,2.67,8.9,2.33S65.38,324,71.38,324s38.33,0,44,.67,8.23-1.67,11.11-2,4-.33,4-.33-7.38-89-6.56-91.5,2.6-12.5,2.6-12.5L120,177.1l-7.86-18.78-58.71,22Z"/><path class="cls-3" d="M23.71,91.45s-22,20.13-23.38,26,1.88,7.88,1.88,7.88S22,136.61,24.71,137.7c3,1.19,13,4.06,15.33,5.31,1.67.88,6.55,2.19,6.92,7.19s-1.74,21.52.44,24.07S59.21,152.2,59.21,152.2l-1.5-10.12a64.83,64.83,0,0,0-13.12-7.5c-6.87-2.75-17.12-15.5-20.75-16.38s-.37-2.75,4.5-5.75,9.88-6.5,9.88-6.5L28,91.45Z"/><path class="cls-5" d="M62.84,65.43s10.81.15,12.59-1.73,2.91-7.37,2.16-8.62,4.13,4.63,9.63,4S101.46,53.44,101,51c-.5-3-.83,8.09.54,12.09,1.08,3.13,6.76,12,11.13,13S116,95.57,116,95.57L97.84,102.2l-32.75-16Z"/><path class="cls-6" d="M56.59,144.52a49.44,49.44,0,0,0,.5,7.5c.5,2,8.44-3,17.72-2.61s37.28.69,37.28.69l-1.34-5.58-27-9.25Z"/><path class="cls-4" d="M44.71,105.82s8,2.25,8.25,12.5,3.75,22.75,4.25,25,19.25-3.25,23.25-2.5,8.5-4.25,13.75-.75,13,3.34,15.75,3.79,4-7.29,3.5-9,1-6,1.75-7.25,1-5.5,1.75-6.75,5.75-6.25,5.75-6.25l7.75-13.5-9.75-7.75L88.51,98.07l-40-22.25-10.25,4Z"/><path class="cls-4" d="M62.21,64.32s-20.75,2.25-22,2.75,4.75,7.75,5,10.5,15.5,16.75,25,18,8,9.5,24.5,11,22.25-3.75,27-3.5S137.21,87.34,137,85.58s-21.25-9.51-24.25-9.51c0,0,2.5,6.52-.25,9.51s-11.17,12-24,7.74S62.21,64.32,62.21,64.32Z"/><path class="cls-4" d="M39,108.82s5-.5,5.75-3,.75-24.25,0-25.25-.44-8.25-2.59-8.25S21.71,86.07,21.71,87.07,37.53,109.07,39,108.82Z"/><path class="cls-4" d="M122.71,114.57s4.5,3.75,4.75,4.75,22.75-13.5,22.25-14.75-12.41-13.63-13.5-17c0,0-7,10.78-9.83,12.9S122.71,114.57,122.71,114.57Z"/><path class="cls-4" d="M57.71,150.82s26.75-4.5,34-3.75,21,1.83,21,1.83,5.5,9.42,6.75,11.17-20.25,19-30.87,19.25-22.37,1.5-25.87,6.75-13.75,4.25-15.5,5.75-1.94,4.75-1.94,4.75S45.63,159.44,57.71,150.82Z"/><path class="cls-4" d="M113.75,169.79s3.25,17.92,4.8,19.62,6.85,3.56,7.84,3-5.64-22.6-5.31-28.86S111.46,168.35,113.75,169.79Z"/><path class="cls-7" d="M87.82,139.14c-2.73.81-2.9,6.34,0,7.51s6.18.07,7.15-2.77-.21-4.42-2.64-4.74S89,138.79,87.82,139.14Z"/><path class="cls-4" d="M119.52,191.32s-.14,22,3.2,25,3.33,11,2,12,8,14.67.83-34.33C125.55,194,123,190.32,119.52,191.32Z"/><path class="cls-8" d="M53.71,386.65s4.17,2,2.25,7.67-6.92,10.33-7.58,15a31.6,31.6,0,0,0,0,8.67h-3.1l.54-12s-5.43,5.33-6.1,10-1.47,9.67-3.73,9.67H18.71s-3.67-3-1.33-6,8-9,8-9,7,4.33,12.67-2.33S52.71,393.32,53.71,386.65Z"/><path class="cls-8" d="M83.22,376.32s-5.84,3-4.84,8,4,5.67,4.84,12,1.49,9.83,1.49,9.83H87s-1.33-9.83,0-11.83,7.67,1,10.33,6,5,12.55,7.33,12.44,18.56-.11,21.78-2.11-4.51-8.53-7-8.6-10.8,3.74-14.8,0S91.38,385,88.38,382,83.22,376.32,83.22,376.32Z"/><path class="cls-9" d="M77.17,56.07s5.69,4.57,8.87,4,11.75-3,15.13-7.79,0-25.25,0-26.38-1.63-8.87-4.63-10.75S86.8,11.45,83.3,12.32s-12,1.75-13.37,9.12.5,23.13,1.75,25.75S75.67,55.2,77.17,56.07Z"/><path class="cls-10" d="M84.34,12.92s-14,4.91-14.42,9.29.83,25.78,4,30.2-6.5-.08-9.75-10.58-9-26.75,2.5-34.25S85.64-2.67,95.3,3.08s18.16,19.5,16.79,28.5-.46,15.31-9.42,19.66c0,0,.54-29.41-4.21-32.41s-10.75-7.75-14.12-6"/><path class="cls-11" d="M86,50l1.43-.21,3.78-3.58-10.42.86S84.63,49.82,86,50Z"/><path class="cls-2" d="M85.52,46s1.12-1.42,1.88-1.24S92,45.89,92.17,46s-6.65,1.66-6.65,1.66L81,47.07,80.12,47s3.33-1.83,3.91-1.54A13.15,13.15,0,0,0,85.52,46Z"/></g></g></svg>