<svg xmlns="http://www.w3.org/2000/svg" viewBox="0 0 612 792"><defs><style>.cls-1{fill:#e6e7e8;}.cls-2{fill:#b8babc;}.cls-3{font-size:12px;fill:#231f20;font-family:PTMono-Regular, PT Mono;}</style></defs><title>interagation</title><g id="Layer_1" data-name="Layer 1"><polygon class="cls-1" points="612 792 0 792 0 45.13 37.09 34.74 33.2 0 612 0 612 792"/><polygon class="cls-2" points="33.2 0 0 45.13 37.09 34.74 33.2 0"/></g><g id="Layer_3" data-name="Layer 3"><text class="cls-3" transform="translate(64 66)">PERSON INTERVIEWED<tspan x="0" y="14.4">DATE OF INTERVIEW</tspan><tspan x="0" y="28.8">TIME OF INTERVIEW</tspan><tspan x="0" y="43.2">CASE NUMBER</tspan><tspan x="0" y="57.6">INTERVIEW CONDUCTED BY</tspan><tspan x="0" y="72">TRANSCRIBED BY</tspan><tspan x="0" y="86.4"> </tspan></text></g><g id="Alice"><text class="cls-3" transform="translate(65 186)">Officer: What was your role at Raytheon Technologies?</text><text class="cls-3" transform="translate(65 217)">Alice: I was the assistant to Robert.</text><text class="cls-3" transform="translate(65 249)">Officer: Was that your only job? Some people seem to think your<tspan x="0" y="14.4">level of involvement in the company was more than just that.</tspan></text><text class="cls-3" transform="translate(65 294)">Alice: Robert trusted me, he knows I’m well educated. It’s natural<tspan x="0" y="14.4">for an assistant to have access to company information. I’m involved </tspan><tspan x="0" y="28.8">in Roberts affairs so naturally I knew about what was going on in </tspan><tspan x="0" y="43.2">the company.</tspan></text><text class="cls-3" transform="translate(64 369)">Officer: Were you aware of any new chemicals being created in the labs?</text><text class="cls-3" transform="translate(65 405)">Alice: I was never involved with the workings of the lab, I helped <tspan x="0" y="14.4">Robert with the broader scope.</tspan></text><text class="cls-3" transform="translate(64 456)">Officer: So you knew who he was planning to have takeover the company<tspan x="0" y="14.4">when he retired?</tspan></text><text class="cls-3" transform="translate(64 503)">Alice: Robert was always secretive about that, but I believe he had <tspan x="0" y="14.4">made his choice. One day I walked in on him writing something on a </tspan><tspan x="0" y="28.8">piece of paper, when he saw me he immediately hid it.</tspan></text><text class="cls-3" transform="translate(64 564)">Officer: How do you know that he was writing who his replacement <tspan x="0" y="14.4">would be?</tspan></text><text class="cls-3" transform="translate(65 610)">Alice: I know Robert and he never writes unless it’s a speech, <tspan x="0" y="14.4">I do all of his writing for him and that’s all typewriter. </tspan><tspan x="0" y="28.8">He didn’t have any speeches to write except the one about his </tspan><tspan x="0" y="43.2">retirement.</tspan></text><g id="Layer_10_copy_2" data-name="Layer 10 copy 2"><text class="cls-3" transform="translate(438.4 66)">Alice Roberts<tspan x="28.8" y="14.4">2/25/1943</tspan><tspan x="50.4" y="28.8">6:00pm</tspan><tspan x="36" y="43.2">00345623</tspan><tspan x="-57.6" y="57.6">Officer Richard Smith</tspan><tspan x="7.2" y="72">Jane Summers</tspan><tspan x="86.4" y="86.4"> </tspan></text></g></g></svg>