<svg xmlns="http://www.w3.org/2000/svg" viewBox="0 0 165.83 424.55"><defs><style>.cls-1{fill:#a5a4a4;}.cls-2{fill:#353535;}.cls-3{fill:#979696;}.cls-4{fill:#515252;}.cls-4,.cls-6{stroke:#434343;}.cls-4,.cls-6,.cls-7{stroke-miterlimit:10;}.cls-5{fill:#afafb0;}.cls-6{fill:#3d3d3d;}.cls-7{fill:#444545;stroke:#353535;}.cls-8{fill:#676767;}.cls-9{fill:#9b9b9b;}.cls-10{fill:#343434;}.cls-11{fill:#515251;}.cls-12{fill:#3f3e3e;}</style></defs><title>Asset 16</title><g id="Layer_2" data-name="Layer 2"><g id="suspect_3"><path class="cls-1" d="M41,325.58s-2,50.3-3.67,55.64-9,27.33-12,28.33,11.67,3,13.67,1.67,14.74-20.36,14.7-23.2c0-2.46-2-6.46,0-15.46s10.39-36.57,11.67-43l1.27-6.43Z"/><path class="cls-1" d="M83.22,334.22s4.16,27.69,2.16,33.18-2.16,7.82-2.16,7.82,13.91,15.37,16.91,21.37,13.78,9.59,19.44,5.42c0,0-14.87-14.46-16.53-24.46s0-45,0-45Z"/><polygon class="cls-2" points="66.65 323.12 65.84 327.22 44.47 325.55 66.65 323.12"/><path class="cls-3" d="M142.11,101.28s22,20.13,23.38,26-1.87,7.87-1.87,7.87-19.77,11.29-22.5,12.38c-3,1.19-13,4.06-15.33,5.31-1.67.88-6.55,2.19-6.92,7.19s1.74,21.52-.44,24.07S106.61,162,106.61,162l1.5-10.12a64.83,64.83,0,0,1,13.13-7.5c6.88-2.75,17.13-15.5,20.75-16.37s.38-2.75-4.5-5.75-9.87-6.5-9.87-6.5l10.25-14.5Z"/><path class="cls-2" d="M80.38,323.12s1.47,8.15,2.84,11.09c.65,1.38,19.82-1.67,19.82-1.67v-9.43Z"/><path class="cls-4" d="M45.28,195.47s-11.56,121.08-8.9,127.75c0,0,6.46,2.67,8.9,2.33s20.1-2.67,26.1-2.67,38.33,0,44,.67,8.23-1.67,11.11-2,4-.33,4-.33-7.38-89-6.56-91.5,2.6-12.5,2.6-12.5L120,176l-7.86-18.78-58.71,22Z"/><path class="cls-3" d="M23.71,90.34s-22,20.12-23.38,26,1.88,7.88,1.88,7.88S22,135.5,24.71,136.59c3,1.19,13,4.06,15.33,5.31,1.67.88,6.55,2.19,6.92,7.19s-1.74,21.52.44,24.07,11.81-22.07,11.81-22.07L57.71,141a64.83,64.83,0,0,0-13.12-7.5c-6.87-2.75-17.12-15.5-20.75-16.37s-.37-2.75,4.5-5.75,9.88-6.5,9.88-6.5L28,90.34Z"/><path class="cls-5" d="M62.84,64.32s10.81.15,12.59-1.73,2.91-7.37,2.16-8.62,4.13,4.63,9.63,4,14.2-6.79,13.83-8.09c-.82-2.93-.83,8.09.54,12.09,1.08,3.13,6.76,12,11.13,13S116,94.47,116,94.47l-18.12,6.62-32.75-16Z"/><path class="cls-6" d="M56.59,143.42a49.44,49.44,0,0,0,.5,7.5c.5,2,8.44-3,17.72-2.61s37.28.69,37.28.69l-1.34-5.58-27-9.25Z"/><path class="cls-4" d="M44.71,104.72s8,2.25,8.25,12.5,3.75,22.75,4.25,25,19.25-3.25,23.25-2.5,8.5-4.25,13.75-.75,13,3.34,15.75,3.79,4-7.29,3.5-9,1-6,1.75-7.25,1-5.5,1.75-6.75,5.75-6.25,5.75-6.25l7.75-13.5-9.75-7.75L88.51,97l-40-22.25-10.25,4Z"/><path class="cls-4" d="M62.21,63.22s-20.75,2.25-22,2.75,4.75,7.75,5,10.5,15.5,16.75,25,18,8,9.5,24.5,11,22.25-3.75,27-3.5S137.21,86.24,137,84.48,115.71,75,112.71,75c0,0,2.5,6.52-.25,9.51s-11.17,12-24,7.74S62.21,63.22,62.21,63.22Z"/><path class="cls-4" d="M39,107.72s5-.5,5.75-3,.75-24.25,0-25.25-.44-8.25-2.59-8.25S21.71,85,21.71,86,37.53,108,39,107.72Z"/><path class="cls-4" d="M122.71,113.47s4.5,3.75,4.75,4.75,22.75-13.5,22.25-14.75-12.41-13.63-13.5-17c0,0-7,10.78-9.83,12.9S122.71,113.47,122.71,113.47Z"/><path class="cls-4" d="M57.71,149.72s26.75-4.5,34-3.75,21,1.83,21,1.83,5.5,9.42,6.75,11.17-20.25,19-30.87,19.25-22.37,1.5-25.87,6.75-13.75,4.25-15.5,5.75-1.94,4.75-1.94,4.75S45.63,158.34,57.71,149.72Z"/><path class="cls-4" d="M113.75,168.68s3.25,17.92,4.8,19.62,6.85,3.56,7.84,3-5.64-22.6-5.31-28.86S111.46,167.25,113.75,168.68Z"/><path class="cls-7" d="M87.82,138c-2.73.81-2.9,6.34,0,7.51s6.18.07,7.15-2.77-.21-4.42-2.64-4.74S89,137.68,87.82,138Z"/><path class="cls-4" d="M119.52,190.22s-.14,22,3.2,25,3.33,11,2,12,8,14.67.83-34.33C125.55,192.88,123,189.22,119.52,190.22Z"/><path class="cls-8" d="M53.71,385.55s4.17,2,2.25,7.67-6.92,10.33-7.58,15a31.6,31.6,0,0,0,0,8.67h-3.1l.54-12s-5.43,5.33-6.1,10-1.47,9.67-3.73,9.67H18.71s-3.67-3-1.33-6,8-9,8-9,7,4.33,12.67-2.33S52.71,392.22,53.71,385.55Z"/><path class="cls-8" d="M83.22,375.22s-5.84,3-4.84,8,4,5.67,4.84,12S84.71,405,84.71,405H87s-1.33-9.83,0-11.83,7.67,1,10.33,6,5,12.55,7.33,12.44,18.56-.11,21.78-2.11-4.51-8.53-7-8.6-10.8,3.74-14.8,0-13.33-17.07-16.33-20.07S83.22,375.22,83.22,375.22Z"/><path class="cls-9" d="M75.66,53S84,59.64,87.25,59.68s11.43-4.48,13.8-9.8c2.78-6.24.13-23.91.13-25S99.55,16,96.55,14.09,86.8,10.34,83.3,11.22,71.3,13,69.92,20.34s.5,23.13,1.75,25.75A61.73,61.73,0,0,0,75.66,53Z"/><path class="cls-10" d="M84.34,11.81s-14,4.91-14.42,9.29,1.47,25.8,4.68,30.23-8.56.23-10.39-10.6C62.33,29.6,57.33,17.18,68,8.1,78.45-.81,84.41-1.57,95.3,2,106,5.46,109.37,22.85,108,31.85s-1,12.25-6.95,18c0,0,2.17-29.15-2.58-32.15s-10.75-7.75-14.12-6"/><path class="cls-11" d="M86,48.89l1.43-.21,3.78-3.58L80.77,46S84.63,48.71,86,48.89Z"/><path class="cls-12" d="M85.52,44.9s1.12-1.42,1.88-1.24S92,44.78,92.17,44.9s-6.65,1.66-6.65,1.66L81,46l-.87-.11S83.45,44,84,44.31A13.15,13.15,0,0,0,85.52,44.9Z"/><path class="cls-10" d="M89.74,13.21s-2,3.81-8.28,2.57-7.07,3.4-7,4.69S76,25,73.74,27.9s-2.34,4.92-2,8-3.41,9-4.42,9.22.27-29.88.27-29.88L78.81,8.47l15.06.64Z"/></g></g></svg>