<svg xmlns="http://www.w3.org/2000/svg" viewBox="0 0 149.05 479.59"><defs><style>.cls-1{fill:#383838;}.cls-2{fill:#979696;}.cls-3,.cls-8{fill:none;}.cls-10,.cls-3{stroke:#686868;}.cls-10,.cls-11,.cls-3,.cls-6,.cls-8{stroke-miterlimit:10;}.cls-11,.cls-4,.cls-6{fill:#686868;}.cls-5{fill:#2f2f2f;}.cls-6{stroke:#2b2b2b;}.cls-7{fill:#ababab;}.cls-8{stroke:#262626;}.cls-10,.cls-9{fill:#c1c1c1;}.cls-11{stroke:#171717;}.cls-12{fill:#151515;}.cls-13{fill:#2b2b2b;}.cls-14{fill:#262626;}.cls-15{fill:#c7c6c5;}</style></defs><title>Asset 5</title><g id="Layer_2" data-name="Layer 2"><g id="Layer_1-2" data-name="Layer 1"><path class="cls-1" d="M90.2,439.72s-1.5,9,0,10.17,6.83.83,9.67,1a15.67,15.67,0,0,0,6.16-.67c1.51-.5,5.51.67,6.34,2.17s12.33,6,16.17,6,19,1.67,19.33-.67,4.17-5.83-4-9.83-20-7.67-22.17-11.67S90.2,439.72,90.2,439.72Z"/><path class="cls-1" d="M47.36,455.83S52.2,467.72,54,469.22s2.5,11-4.42,10.33-24.25-2.5-24.58-6-.33-6.67-1.83-8-3.05-6.67-2.53-8.67a65.6,65.6,0,0,0,1-6.5Z"/><path class="cls-2" d="M129.38,240.1s-13.47,93.56-12.63,99.11,10.1,93.19,12.63,96.15-31.14,12.57-44.19,3c0,0-4.21-100.58-2.95-107.24S77.2,268.2,77.2,268.2s19.36-48.76,19.36-52.3,0,26.41,2.95,27.52S129.38,240.1,129.38,240.1Z"/><path class="cls-2" d="M30.19,254.76s68.16-17.15,67.76-16S48.2,448.39,47.86,453.72s-25.33-1-27-2S30.19,254.76,30.19,254.76Z"/><path class="cls-3" d="M127.69,427.43s-27.3,8.71-42.86,0"/><path class="cls-3" d="M49.62,444.93s-22.14,1.79-28.94-5.21"/><path class="cls-4" d="M103.92,152.72s-1.26,106.8-16,106.8-46.4,8.53-59.73-2.13c0,0,4.67-73.33,8.33-84.33s-.67-21.33-.67-23.67,9.33-21,9.67-28.67,3.33-42-9.33-45.33c0,0,25.33-2,31.67-11.67,0,0,21,43,21.67,46S104,150.39,103.92,152.72Z"/><path class="cls-5" d="M94.62,83.64s5.35,38.67,10,42.33,2.4,24,2.4,24L83.58,114.3l4.95-30.67Z"/><path class="cls-6" d="M36.49,176.46s-8.17-10-7.17-13.22,5.67-11.53,6.33-13.85,12.68-24.28,10.21-44.66-2.21-27-9.87-29.34-19.33,12-20.67,19.67S3.66,137.72,3.66,143.72s-4,16.67-3,21.67,30.85,43.38,32.88,45S36.49,176.46,36.49,176.46Z"/><path class="cls-4" d="M99.56,74.92s30.67,10,34,14.67,3.67,68.33-9.33,88.33c0,0-2.45,14,1.44,26s4.56,56.94,2.23,57.47-21,6.2-26,3.53-3.43-32.75-3-35.86,5.14-79.8,6.09-95.14S96.23,78.92,99.56,74.92Z"/><path class="cls-7" d="M98.89,63.75a11.49,11.49,0,0,0-2,9.32c1.33,5.15-6.25,5.65-6.25,5.65l-23.08-14,1.33-2.92s3.18-8,2.58-15.5S98.89,63.75,98.89,63.75Z"/><path class="cls-8" d="M77.83,120.39s-28.29-2.67-29.29-2.33"/><path class="cls-9" d="M74.86,119.21s2.67-2.15,0-3.15-15.87-3.33-18.6-2.67,0,5.1,0,5.1Z"/><path class="cls-9" d="M86.61,101.83s1.77-14.15,1.77-17.6-4.24-3.42-3.52-5-4.19,7.91-4.19,7.91l5.94,14.67Z"/><path class="cls-9" d="M94,86.05s3.82-6.38,4.17-4.38,5.79,44.71,5.79,44.71S92.38,91.05,94,86.05Z"/><path class="cls-10" d="M86.2,75.39,68.86,63.67S74.73,87.39,78,87.89,86.2,75.39,86.2,75.39Z"/><path class="cls-10" d="M98.89,73.08s-7,2.47-6.67,3.73.52,8.27,2.1,8.27,3.83-4.33,3.54-6S97.22,74.41,98.89,73.08Z"/><path class="cls-8" d="M66.2,202.39s-.3,7-5.85,6.67-20.58.36-22,0-1.67-8.34-1.67-8.34"/><path class="cls-8" d="M123.2,200.72s-.79,6.89,1.44,8.44"/><path class="cls-8" d="M103.92,155.72s-4.07,99.67-12.06,104.33C83.43,265,84,293.79,84,293.79"/><path class="cls-11" d="M61.25,68.77s.33,13.33,0,15.33,6.67,3.67,6.67,3.67l-6.68,5,43.34,56.33s-33-86-35.33-86.67S64.25,68.44,61.25,68.77Z"/><path class="cls-12" d="M62.53,24.14s-.25-13,.67-13.92S70,.64,77.83.14,98.61.22,100.7,6.55s5.25,13.67,4.75,17.58c0,0-13.67-2.92-14.25-2.92s-7.08-.58-9-.08S71.86,24,70.2,25.22,62.53,24.14,62.53,24.14Z"/><path class="cls-13" d="M91.85,75.18s-4.71-.71-5.65.21-3.62,4,.81,7.54a1.82,1.82,0,0,0,1.18,1.38c1,.31,5.25-.11,5.77-.25S93.17,75.34,91.85,75.18Z"/><path class="cls-11" d="M97.67,78.51s5,31.1,7.84,53.08c.35,2.72-.55,5.37-.28,7.74a33.8,33.8,0,0,1-.37,7c-.53,5.41-.26,11-.48,11.92-.17.71,2.93-8.42,3.34-10.33,2.33-10.91-.94-70.76-.94-70.76l-7.79-3Z"/><path class="cls-8" d="M124.64,116.24s-2,37.3-1.66,53.23c0,.94,1,8.09,1,8.87"/><path class="cls-14" d="M106.4,40.3s14.88-6.42,14.55-9.08.33-5.62-15.57-9.59c-2.48-.62-9.31-2.51-14.68-2.88C80.22,18,67,20.34,58.45,25c-13,7-9.17,14.67-7,16.17s11.25,5.08,16.08,5.5S106.4,40.3,106.4,40.3Z"/><path class="cls-8" d="M35.2,75.13a10.09,10.09,0,0,1,7.63,7.14c1.84,6.24,3.58,17,3.35,23.48s.87,18.81-2.56,23.14"/><path class="cls-7" d="M73,50.28a5.44,5.44,0,0,1-6.33-3.42c-2-4.58-5.08-4.92-5-7s-.17-5.08,3.33-5,4.58.92,5.33,3.17,5.43,10.08,3.09,12S73,50.28,73,50.28Z"/><path class="cls-15" d="M106.28,39.89s.25,7.42-.83,9.33-1.08,14.42-5.75,14.5-16,2.58-21.87-5-7.13-10.33-7-14.5-.61-5.25,0-5.42,3.93,1.67,3.76-2.33-.92-8.08.83-9.33,7.75-5.67,10.75-5.5,13,2.17,15.42,4.75S107,34.05,106.28,39.89Z"/><path class="cls-3" d="M65.55,262.75s-20.69,176.62-24.85,182"/><polyline class="cls-3" points="110.81 265.24 108.57 336.92 113.03 429.36"/></g></g></svg>