<svg xmlns="http://www.w3.org/2000/svg" viewBox="0 0 148.05 484.09"><defs><style>.cls-1{fill:#383838;}.cls-2{fill:#6d6d6d;stroke:#353535;}.cls-2,.cls-3,.cls-4,.cls-8,.cls-9{stroke-miterlimit:10;}.cls-3{fill:none;stroke:#262626;}.cls-4,.cls-9{fill:#686868;}.cls-4{stroke:#2b2b2b;}.cls-5{fill:#2f2f2f;}.cls-6{fill:#ababab;}.cls-7,.cls-8{fill:#c1c1c1;}.cls-8{stroke:#686868;}.cls-9{stroke:#171717;}.cls-10{fill:#151515;}.cls-11{fill:#2b2b2b;}.cls-12{fill:#262626;}.cls-13{fill:#c7c6c5;}</style></defs><title>Asset 18</title><g id="Layer_2" data-name="Layer 2"><g id="suspect_5"><path class="cls-1" d="M89.2,444.22s-1.5,9,0,10.17,6.83.83,9.67,1a15.67,15.67,0,0,0,6.16-.67c1.51-.5,5.51.67,6.34,2.17s12.33,6,16.17,6,19,1.67,19.33-.67,4.17-5.83-4-9.83-20-7.67-22.17-11.67S89.2,444.22,89.2,444.22Z"/><path class="cls-1" d="M44.17,457.63s7,14.59,8.86,16.09,2.5,11-4.42,10.33-24.25-2.5-24.58-6-.33-6.67-1.83-8-3.05-6.67-2.53-8.67a65.6,65.6,0,0,0,1-6.5Z"/><path class="cls-2" d="M126.25,243.84s-7.76,94.49-8.28,100.08c-.5,5.33,5.61,97.34,8.14,100.3s-28.86,8.2-41.91-1.41c.06,1.27-3-89.9-4.73-106.39-.72-6.9,2.45-92.12,2.45-92.12s13.64-20.35,13.64-23.89-.08,23.24,2.87,24.35S126.25,243.84,126.25,243.84Z"/><path class="cls-2" d="M35.7,246.92s59.25-4.05,58.85-2.86S50.78,452.25,50.45,457.58s-28.92-.36-30.58-1.36S35.7,246.92,35.7,246.92Z"/><path class="cls-3" d="M123.77,428.73s-1,1.52-11.73,5.13a3.41,3.41,0,0,1-.73.08c-9.37,1-17.6,1.55-27.52-1.2"/><path class="cls-3" d="M52,449.24s-25,2.83-31.8-4.17"/><path class="cls-4" d="M102.92,157.22S101.66,264,86.93,264s-46.4,8.53-59.73-2.13c0,0,4.67-73.33,8.33-84.33s.05-21.45-.67-23.67c-2.9-9,1.34-16.46,4.83-30.18,5-19.46,8.17-40.49-4.5-43.82,0,0,25.33-2,31.67-11.67,0,0,21,43,21.67,46S103,154.89,102.92,157.22Z"/><path class="cls-5" d="M91.21,87.77s7.77,39,12.38,42.7,2.4,24,2.4,24l-5.18,2.78L82.58,118.8,86.93,88.2Z"/><path class="cls-4" d="M36.19,175.28s-6.64-5.6-5.64-8.78S39.27,140.13,42,126.42a95.24,95.24,0,0,0,1.83-19c-.31-20.53-.14-25.2-7.81-27.53s-19.33,12-20.67,19.67S3.66,142.22,3.66,148.22s-4,16.67-3,21.67S29,210.52,31,212.13a10.76,10.76,0,0,1-.26,2.79C31.06,209.61,36.19,175.28,36.19,175.28Z"/><path class="cls-4" d="M98.56,79.42s30.67,10,34,14.67-2.42,68.24-8.93,95.83c0,0,0,6,1,18.5s4.56,56.94,2.23,57.47-21,6.2-26,3.53-3.43-32.75-3-35.86,5.14-79.8,6.09-95.14S95.23,83.42,98.56,79.42Z"/><path class="cls-6" d="M99.62,68.25s-3.54,4.18-2.14,9.32-6.6,5.65-6.6,5.65l-24.36-14,1.41-2.92s3.36-8,2.73-15.5S99.62,68.25,99.62,68.25Z"/><path class="cls-3" d="M76.83,124.89s-28.29-2.67-29.29-2.33"/><path class="cls-7" d="M73.86,123.71s2.67-2.15,0-3.15-15.87-3.33-18.6-2.67,0,5.1,0,5.1Z"/><path class="cls-7" d="M87.39,88.73c0-3.45-4.24-3.42-3.52-5s-5.31,8.31-5.31,8.31l1.37,5.65,4.82,8.89S87.39,92.18,87.39,88.73Z"/><path class="cls-7" d="M90.92,87.94s5.85-3.76,6.2-1.76a93.39,93.39,0,0,1,3.49,13.2c1.48,8.66,2.14,19.77,3,26.31a10.93,10.93,0,0,1-.52,5.81S89.35,92.94,90.92,87.94Z"/><path class="cls-8" d="M85.2,79.89,67.86,68.17S73.73,91.89,77,92.39,85.2,79.89,85.2,79.89Z"/><path class="cls-8" d="M97.89,77.57s-7,2.47-6.67,3.73.52,8.27,2.1,8.27,3.83-4.33,3.54-6S98.56,79.42,97.89,77.57Z"/><path class="cls-3" d="M65.2,206.89s-.3,7-5.85,6.67-20.58.36-22,0-1.67-8.34-1.67-8.34"/><path class="cls-3" d="M122.2,205.22s-.79,6.89,1.44,8.44"/><path class="cls-3" d="M102.92,160.22s-1,48.35-5.41,78.87c-1.91,13.14-6,22.71-8.41,24.11-4.4,2.57-23.9,2.38-38.65,4a36,36,0,0,1-23.25-5.35"/><path class="cls-9" d="M60.25,73.27s.33,13.33,0,15.33,6.67,3.67,6.67,3.67l-6.68,5,43.34,62.36s-33-92-35.33-92.69S63.25,72.93,60.25,73.27Z"/><path class="cls-10" d="M60.57,26.21s-.27-14.11.72-15.11S68.66.69,77.06.15s22.41.09,24.66,7,5.66,14.84,5.12,19.09c0,0-14.73-3.17-15.36-3.17s-7.64-.63-9.7-.09S70.63,26,68.84,27.38,60.57,26.21,60.57,26.21Z"/><path class="cls-11" d="M90.85,79.68s-4.71-.71-5.65.21-3.45,5,1,8.6l1,.31A9.4,9.4,0,0,0,92,87.69C93,86.26,92.17,79.83,90.85,79.68Z"/><path class="cls-9" d="M96.67,83s8.24,31.1,7.34,53.24c-.17,4.16-.85,12.08-1.1,14.67-.53,5.41.69,10.92.47,11.84-.17.71,2.93-8.42,3.34-10.33,2.33-10.91-.94-70.76-.94-70.76l-7.79-3Z"/><path class="cls-3" d="M123.64,120.74S121.67,158,122,174c0,.94,1.62,11.83,1.66,12.61"/><path class="cls-12" d="M107.86,43.76s16-7,15.68-9.86.35-6.1-16.78-10.41c-2.67-.67-10-2.73-15.82-3.12-11.29-.77-25.5,1.72-34.77,6.75-14,7.6-9.88,15.92-7.55,17.55s12.13,5.52,17.34,6S107.86,43.76,107.86,43.76Z"/><path class="cls-6" d="M71.85,54.59A5.85,5.85,0,0,1,65,50.88c-2.16-5-5.48-5.34-5.39-7.6s-.18-5.52,3.59-5.43,4.94,1,5.75,3.44,5.85,10.95,3.33,13S71.85,54.59,71.85,54.59Z"/><path class="cls-13" d="M107.73,43.31s.27,8.05-.9,10.13-1.17,15.65-6.2,15.74S83.39,72,77.06,63.75,69.37,52.53,69.55,48s-.66-5.7,0-5.88,4.24,1.81,4.06-2.53-1-8.78.9-10.13,8.35-6.15,11.59-6,14,2.35,16.62,5.16S108.54,37,107.73,43.31Z"/><path class="cls-3" d="M64.69,266.2S43.79,444.43,39.62,449.8"/><polyline class="cls-3" points="109.81 269.74 107.57 341.42 111.31 433.94"/></g></g></svg>