<svg xmlns="http://www.w3.org/2000/svg" xmlns:xlink="http://www.w3.org/1999/xlink" viewBox="0 0 1080 800"><defs><style>.cls-1{fill:#cecdcd;}.cls-2,.cls-20{stroke:#fff;}.cls-2,.cls-20,.cls-8{stroke-miterlimit:10;}.cls-3{fill:#fff;}.cls-4{fill:#918e8e;}.cls-5{fill:#c6c4c4;}.cls-6{fill:#6d6d6d;}.cls-7{fill:#dbd9d9;}.cls-20,.cls-8{fill:none;}.cls-8{stroke:#6d6d6d;stroke-width:1.5px;}.cls-9{fill:#e5e3e3;}.cls-10{fill:#f2f2f3;}.cls-11{font-size:17.69px;fill:#030202;font-family:Menlo-Bold, Menlo;font-weight:700;}.cls-12{fill:#e2e2e2;}.cls-13{fill:url(#linear-gradient);}.cls-14{fill:url(#linear-gradient-2);}.cls-15{fill:url(#linear-gradient-3);}.cls-16{fill:url(#linear-gradient-4);}.cls-17{fill:url(#linear-gradient-5);}.cls-18{fill:url(#linear-gradient-6);}.cls-19{fill:#c2c1c0;}.cls-21{fill:url(#linear-gradient-7);}.cls-22{fill:url(#linear-gradient-8);}.cls-23{fill:url(#linear-gradient-9);}.cls-24{fill:url(#linear-gradient-10);}.cls-25{fill:url(#linear-gradient-11);}.cls-26{fill:url(#linear-gradient-12);}</style><linearGradient id="linear-gradient" x1="163.24" y1="686.56" x2="283.5" y2="686.56" gradientTransform="translate(253.54 -256.36)" gradientUnits="userSpaceOnUse"><stop offset="0.01" stop-color="#fff"/><stop offset="0.12" stop-color="#d3d3d3"/><stop offset="0.29" stop-color="#949494"/><stop offset="0.45" stop-color="#5f5f5f"/><stop offset="0.6" stop-color="#363636"/><stop offset="0.74" stop-color="#181818"/><stop offset="0.86" stop-color="#060606"/><stop offset="0.94"/></linearGradient><linearGradient id="linear-gradient-2" x1="163.51" y1="804.96" x2="283.77" y2="804.96" gradientTransform="translate(371.67 -375.02)" xlink:href="#linear-gradient"/><linearGradient id="linear-gradient-3" x1="169.78" y1="919.82" x2="292.57" y2="919.82" gradientTransform="translate(478.93 -497.5)" xlink:href="#linear-gradient"/><linearGradient id="linear-gradient-4" x1="193.15" y1="1034.35" x2="325.39" y2="1034.35" gradientTransform="translate(565.06 -640.41)" xlink:href="#linear-gradient"/><linearGradient id="linear-gradient-5" x1="169.06" y1="559.94" x2="291.85" y2="559.94" gradientTransform="translate(119.76 -136.91)" xlink:href="#linear-gradient"/><linearGradient id="linear-gradient-6" x1="193.15" y1="452.08" x2="325.39" y2="452.08" gradientTransform="translate(-17.2 -58.14)" xlink:href="#linear-gradient"/><linearGradient id="linear-gradient-7" x1="37.51" y1="686.8" x2="57.26" y2="686.8" gradientTransform="matrix(1, 0, 0, -1, 432.84, 1481.95)" xlink:href="#linear-gradient"/><linearGradient id="linear-gradient-8" x1="37.55" y1="804.93" x2="57.3" y2="804.93" gradientTransform="matrix(1, 0, 0, -1, 550.92, 1600.12)" xlink:href="#linear-gradient"/><linearGradient id="linear-gradient-9" x1="37.53" y1="919.82" x2="57.28" y2="919.82" gradientTransform="matrix(1, 0, 0, -1, 665.84, 1714.99)" xlink:href="#linear-gradient"/><linearGradient id="linear-gradient-10" x1="37.44" y1="1034.35" x2="57.19" y2="1034.35" gradientTransform="matrix(1, 0, 0, -1, 780.45, 1829.42)" xlink:href="#linear-gradient"/><linearGradient id="linear-gradient-11" x1="37.51" y1="559.94" x2="57.26" y2="559.94" gradientTransform="matrix(1, 0, 0, -1, 305.98, 1355.09)" xlink:href="#linear-gradient"/><linearGradient id="linear-gradient-12" x1="37.44" y1="451.96" x2="57.19" y2="451.96" gradientTransform="matrix(1, 0, 0, -1, 198.07, 1247.04)" xlink:href="#linear-gradient"/></defs><title>eb_behindbars</title><g id="Layer_15" data-name="Layer 15"><rect width="1080" height="800"/><path class="cls-1" d="M513.61,596.42s11-5.47,12.82-15.95,40.45,1,40.45,1,4.27,27.79,10.33,27.79c14.83,0-25,22.14-25,22.14L513.61,622Z"/><path class="cls-2" d="M602.22,613.68s-22.85,0-25.94-4.34-5.56,19.76-32.73,13.59-28.1-25.94-29-26.87-35.51,4.63-41.07,4.32S470,634,470,634s-5.25,40.45-4.32,64.54,1.81,103.88,1.81,103.88H579.77s18.75-117.77,16.89-126.11,4,16.06,9.88,23.16S627.85,710.63,630,710s21.31-14.2,21-18.84S634.33,622,629.08,617.06s-13,7.1-23.47,3.09c0,0-11.73-8.65-6.79,11.43s7.34,29.87,6.73,32.34"/><path class="cls-3" d="M448.48,663.6s8.15,13.18,8.84,16.21,10.16-8.51,10.22-11.43S462.13,649.23,458,653A116.1,116.1,0,0,0,448.48,663.6Z"/><path class="cls-4" d="M606,610.3c.62,2.16.47,10.94.47,12.48"/><path class="cls-5" d="M529.31,539.18s-4.51-3-7.17-2-6.33,5.06-5.91,12.14,1.54,7.78,1.65,10.3.79,7.65,9.51,6.78S529.31,539.18,529.31,539.18Z"/><path class="cls-6" d="M586.47,549.93s9.67-19.26,10.22-25.36.75-14.09-9.76-22.17-22.27-13.23-29.34-12.27-21,7.23-22.86,7.84-10.07,7.47-11.29,11.76-5.94,26.32-.26,28.7S586.47,549.93,586.47,549.93Z"/><path class="cls-5" d="M579.06,549.34s5.22-1.44,7.45.29,4.44,6.79,1.83,13.38-3.9,6.91-4.79,9.27-3.14,7-11.15,3.47S579.06,549.34,579.06,549.34Z"/><path class="cls-7" d="M522.08,571.84c.32,3,2.55,14,5.69,16.62s6.35,9.56,7.91,10.11,10.62,3.78,18-.4,13.88-7.08,16.75-13,11.32-37.53,11.7-41,2.47-18,2.47-18-15.92-3.42-17.47-2.34-6.32,3.53-7.34,3.27-4.22-4.16-6.07-3.19-7.59-1.87-8-5.57-8.86-7.6-11.26-6.5-5.24.59-6.54,12.44-4.33,29.76-4.76,34.41S521.83,569.56,522.08,571.84Z"/><path class="cls-8" d="M553.2,548.58s16.91,1.85,19.42,3.66.53,11.38-.69,12.54c-1.52,1.44-17.28-2.14-18.08-4.15s-.65-12.06-.65-12.06-5.13-1.67-6.19-1.44-.59,11.88-3.65,11.38-13.5-2.79-14.73-3.42c-.79-.41-2.07-9-.17-12.19.67-1.15,2.61-.81,5.31-.21a137.11,137.11,0,0,1,14.68,4.57"/><line class="cls-8" x1="581.11" y1="551.66" x2="573.3" y2="554.7"/><line class="cls-8" x1="525.76" y1="542.37" x2="527.64" y2="547.45"/><path class="cls-2" d="M455.26,669.14s-.31,12,2.78,10.81c3.45-1.38-19.15,7.1-26.87,8s-20.38-7.1-24.4-16.06S419.13,632.7,438,613.58s17.6-9.59,17.6-9.59c.31,12.35,16.06,13.9,16.06,13.9,6.07,1.52-2.78,10.19-7.72,20.38S460.2,663,460.2,663"/><path class="cls-3" d="M459.52,657.56c3.7-1.92,1.69,21.18-1.49,22.39S451.27,661.83,459.52,657.56Z"/><path class="cls-3" d="M469.72,609.85s50.06-1,49.12-2.53A79.2,79.2,0,0,1,514.24,596c-.62-2.47-41.69,3-42.62,5.35A60.21,60.21,0,0,0,469.72,609.85Z"/><path class="cls-3" d="M568,617.79s42,13.68,42,10.9,3.71-13.28,0-13.9-18.73-1.3-23.46-2-9.6-5.79-11.62-4C572.62,610.84,568,617.79,568,617.79Z"/><path class="cls-3" d="M470,625S604,637,603.79,642.41s0,16.85,0,16.85-135-14.12-134.74-16.83c.14-1.25.63-4.22.92-7.8A76.88,76.88,0,0,0,470,625Z"/><path class="cls-3" d="M467.69,655.9S596,669.37,596.34,674.53s1.36,10.51-.85,13.52-129.48-10-129.26-13.36S467.69,655.9,467.69,655.9Z"/><path class="cls-3" d="M465.62,690.14s127,15.14,126.38,17.92-3.26,14.47-3.26,14.47S466,707.77,466,706.34,465.62,690.14,465.62,690.14Z"/><path class="cls-3" d="M467.15,720.72l123,13.55s-1.56,13.83-1.77,14.63-122.08-14.09-122.08-14.09Z"/><path class="cls-3" d="M468.75,752.82s118.38,4.9,117.34,8.82a86.12,86.12,0,0,0-1.68,11s-115.26-4.93-115.3-6.17S468.75,752.82,468.75,752.82Z"/><path class="cls-3" d="M467.37,778.56S583,783.3,582,787.22a87.63,87.63,0,0,0-1.57,11.28s-112.64-5.1-112.67-6.34S467.37,778.56,467.37,778.56Z"/><path class="cls-6" d="M595.45,577.74s-2.16-5.43-4.63-4.26S584,573.39,588,580s9.79,7,9.79,7Z"/><path class="cls-6" d="M492.86,569.78s-.24-6.87-2.1-7.18-5.07.21-5.32,5.2S492.86,569.78,492.86,569.78Z"/><path class="cls-9" d="M598.59,629.45S591,626,592.83,622.7s3.79-5.12,5.6-5.62,14.78-2.35,15.09,1.36S603.35,630.86,598.59,629.45Z"/><path class="cls-3" d="M601.91,648.56s34.3-13.92,35.5-9.89,3.93,13.51,4.3,14.86-35.65,13.15-36.16,10.38S601.91,648.56,601.91,648.56Z"/><path class="cls-3" d="M645.51,667.27s-39.09,3.89-36.82,10.16c2.85,7.86-2.34,9.78,18.09,10,20.62.18,21.8-7.15,21.8-7.15Z"/><path class="cls-3" d="M608,675s-6,12.7-6.05,15.7-6.4-8.47-6.44-11.4,3.38-20.89,6.44-17.1S608,675,608,675Z"/><path class="cls-3" d="M462.07,643.08S432,619.83,429.71,622.83s-8.64,10.83-10.52,14.56c-1.26,2.5,38.42,23,39.83,22.11S462.07,643.08,462.07,643.08Z"/><path class="cls-3" d="M412.38,652.45s44.18,12.79,42.29,15.56-5.33,11.15-7.18,11.77-41.61-10.49-41.18-13.42S409.6,650,412.38,652.45Z"/><polygon class="cls-10" points="501.32 641.93 577.21 652.91 570.5 680.27 494.29 668.72 501.32 641.93"/><text class="cls-11" transform="translate(511.84 665.23) rotate(8.52) scale(0.91 1)">48973</text><rect class="cls-12" x="526.36" y="422.89" width="23.62" height="588.1" transform="translate(1255.1 178.77) rotate(90)"/><rect class="cls-13" x="411.33" y="423.79" width="138.51" height="12.81" transform="translate(50.38 910.78) rotate(-90)"/><rect class="cls-12" x="474.17" y="482.97" width="12.81" height="315.53"/><rect class="cls-14" x="529.72" y="423.53" width="138.51" height="12.81" transform="translate(169.04 1028.91) rotate(-90)"/><rect class="cls-12" x="592.57" y="482.71" width="12.81" height="315.53"/><rect class="cls-15" x="643.13" y="415.92" width="141.42" height="12.81" transform="translate(291.52 1136.16) rotate(-90)"/><rect class="cls-12" x="707.44" y="476.2" width="12.81" height="322.15"/><rect class="cls-16" x="752.21" y="387.53" width="152.31" height="12.81" transform="translate(434.43 1222.3) rotate(-90)"/><rect class="cls-12" x="821.96" y="451.97" width="12.81" height="346.96"/><rect class="cls-17" x="283.26" y="416.63" width="141.42" height="12.81" transform="translate(-69.07 777) rotate(-90)"/><rect class="cls-12" x="347.56" y="476.92" width="12.81" height="322.15"/><rect class="cls-18" x="169.95" y="387.53" width="152.31" height="12.81" transform="translate(-147.84 640.04) rotate(-90)"/><rect class="cls-12" x="239.69" y="451.97" width="12.81" height="346.96"/><path class="cls-19" d="M628.54,622.79c-2.78-4.63-13.39-34.22-13.39-36.07s.93-7.41-.62-9-9.57-7.41-10.5-9-7.1-.93-8.34,0-4.94,3.4-5.25,4.63a3.5,3.5,0,0,0,4.63,3.71c3.71-.93,3.71-3.09,3.71-3.09a5.42,5.42,0,0,0,2.78,3.4c2.16.93-10.81.31-11.73,2.16s-1.85,5.87-.62,6.18,6.48,1.85,9,1.85-9.26-.93-9.88.31-1.54,6.18-.31,6.48,11.43-.31,12,.62-12.66-1.85-12.35,1.24,1.24,6.79,4.32,7.1,5.25,0,6.79-1.54-4,2.16-.93,4.32,7.17,8.92,7.79,11.08"/><path class="cls-19" d="M453.27,606.07c5.87-6.18,15.26-28.45,18-30.3s10.81-8,13.59-8,7.41-1.24,9.57,1.85,3.4,5.87,2.16,7.1-3.71,2.16-5.25.93-4.32-.62-2.16.62,8.34-1.85,9.57,2.47,2.78,6.48-3.71,6.79,4.67-.93,4.81,1.85,1.37,6.18-4.5,5.56-8-1.54-8-1.54,13,1.85,10.19,6.18-4,4-7.1,3.09c0,0-17,14.94-24.24,17.41"/><path class="cls-3" d="M605.38,631.81s27.52-7.5,26.52-10.37-2.63-12.49-8.49-9.62-10.35,6.8-13.13,6.17-1.77-.12-4.09-1.2c-.92-.43-1.29.23-1.1,2.16C605.37,622,605.31,626.07,605.38,631.81Z"/><path class="cls-3" d="M467.39,632.79s-27.31-15.2-26.63-21.59c0,0,11.83-12.09,13.84-9.67s1.69,14.78,17.7,16.73C472.3,618.27,478.94,619.94,467.39,632.79Z"/><path class="cls-20" d="M605.55,663.91s1.92,12.41,5.39,19.13"/><path class="cls-20" d="M459.3,658.45a48.39,48.39,0,0,0-1.77,6.79"/><path d="M456.62,658.81s2.6.82,2.69,1.14-.61,19.94-2.69,20-2.36-1.41-2.63-2.41c-.13-.5.23-4.57.47-8.6,0-.45.53-1.09.27-1.47-.06-.08-.2,0-.19-.11.17-3.48.14-6.61.32-6.73A19.72,19.72,0,0,0,456.62,658.81Z"/><path class="cls-20" d="M459.77,657.85S451,676,448.8,677.6"/><path class="cls-3" d="M611.35,703.6s28.22-1.63,27.38.62l-1.22.91H614Z"/><rect class="cls-21" x="469.45" y="788.66" width="22.75" height="12.97" transform="translate(1275.97 314.32) rotate(90)"/><rect class="cls-12" x="474.34" y="734.66" width="12.97" height="51.82"/><rect class="cls-22" x="587.58" y="788.76" width="22.75" height="12.86" transform="translate(1394.14 196.24) rotate(90)"/><rect class="cls-12" x="592.52" y="734.7" width="12.86" height="51.82"/><rect class="cls-23" x="702.47" y="788.69" width="22.75" height="12.97" transform="translate(1509.01 81.33) rotate(90)"/><rect class="cls-12" x="707.36" y="734.68" width="12.97" height="51.82"/><rect class="cls-24" x="816.99" y="788.59" width="22.75" height="12.97" transform="translate(1623.44 -33.29) rotate(90)"/><rect class="cls-12" x="821.88" y="734.59" width="12.97" height="51.82"/><rect class="cls-25" x="342.59" y="788.66" width="22.75" height="12.97" transform="translate(1149.11 441.18) rotate(90)"/><rect class="cls-12" x="347.48" y="734.66" width="12.97" height="51.82"/><rect class="cls-26" x="234.61" y="788.59" width="22.75" height="12.97" transform="translate(1041.06 549.1) rotate(90)"/><rect class="cls-12" x="239.5" y="734.59" width="12.97" height="51.82"/></g></svg>