<svg xmlns="http://www.w3.org/2000/svg" viewBox="0 0 947.46 568.1"><defs><style>.cls-1{font-size:19px;fill:#231f20;font-family:MyriadPro-Bold, Myriad Pro;font-weight:700;}.cls-2{letter-spacing:-0.07em;}.cls-3{fill:#4c4c4d;}.cls-4{fill:#414242;}.cls-5{fill:#cecdcd;}.cls-21,.cls-6{fill:#979696;}.cls-7{fill:#e2e2e2;}.cls-8,.cls-9{fill:#8e8e8e;}.cls-20,.cls-8{stroke:#606161;}.cls-17,.cls-18,.cls-19,.cls-20,.cls-21,.cls-22,.cls-23,.cls-25,.cls-26,.cls-28,.cls-29,.cls-30,.cls-39,.cls-41,.cls-42,.cls-48,.cls-49,.cls-51,.cls-53,.cls-54,.cls-66,.cls-67,.cls-68,.cls-69,.cls-73,.cls-74,.cls-8{stroke-miterlimit:10;}.cls-10{fill:#4a494a;}.cls-11{fill:#40403f;}.cls-12{fill:#f0efef;}.cls-13{fill:#7b7b7b;}.cls-14{fill:#c6c4c4;}.cls-15,.cls-67{fill:#6d6d6d;}.cls-16{fill:#dbd9d9;}.cls-17,.cls-19,.cls-20,.cls-22,.cls-51,.cls-54,.cls-66,.cls-68{fill:none;}.cls-17{stroke:#6d6d6d;stroke-width:1.5px;}.cls-18,.cls-41,.cls-57{fill:#3d3d3d;}.cls-18,.cls-48,.cls-54{stroke:#494848;}.cls-19,.cls-21{stroke:#5c5c5c;}.cls-22,.cls-25,.cls-30{stroke:#020202;}.cls-23{fill:#dbdad9;}.cls-23,.cls-26{stroke:#595858;}.cls-24,.cls-29{fill:#b4b4b5;}.cls-25{fill:#2e2e2e;}.cls-26,.cls-36{fill:#767576;}.cls-27{fill:#545554;}.cls-28{fill:#343535;stroke:#545554;}.cls-29{stroke:#969696;}.cls-30{fill:#212121;}.cls-31{fill:#282827;}.cls-32{fill:#151515;}.cls-33{fill:#212222;}.cls-34{fill:#333;}.cls-35{fill:#717272;}.cls-37{fill:#a5a4a4;}.cls-38{fill:#353535;}.cls-39{fill:#515252;}.cls-39,.cls-41,.cls-49{stroke:#434343;}.cls-40{fill:#afafb0;}.cls-42{fill:#444545;}.cls-42,.cls-67{stroke:#353535;}.cls-43{fill:#676767;}.cls-44{fill:#9b9b9b;}.cls-45{fill:#343434;}.cls-46{fill:#515251;}.cls-47{fill:#3f3e3e;}.cls-48{fill:#303030;}.cls-49,.cls-63{fill:#898989;}.cls-50,.cls-53{fill:#9e9d9e;}.cls-51,.cls-53{stroke:#3a3a3a;}.cls-52,.cls-69,.cls-74{fill:#686868;}.cls-55{fill:#494848;}.cls-56{fill:#414141;}.cls-58{fill:#dfdfde;}.cls-59{fill:#c2c1c0;}.cls-60{fill:#2d2d2d;}.cls-61{fill:#0e0e0e;}.cls-62{fill:#30302f;}.cls-64{fill:#7f7f7f;}.cls-65{fill:#383838;}.cls-66{stroke:#515251;}.cls-68{stroke:#262626;}.cls-69{stroke:#2b2b2b;}.cls-70{fill:#2f2f2f;}.cls-71{fill:#ababab;}.cls-72,.cls-73{fill:#c1c1c1;}.cls-73{stroke:#686868;}.cls-74{stroke:#171717;}.cls-75{fill:#2b2b2b;}.cls-76{fill:#262626;}.cls-77{fill:#c7c6c5;}</style></defs><title>Asset 13</title><g id="Layer_2" data-name="Layer 2"><g id="lines"><rect x="55.29" y="6.9" width="892.17" height="9"/><rect x="2.5" y="27.96" width="944.95" height="4.5"/><rect x="2.5" y="44.51" width="944.95" height="4.5"/><rect x="2.5" y="59.94" width="944.95" height="4.5"/><rect x="2.5" y="73.43" width="944.95" height="4.5"/><rect x="55.29" y="90.47" width="892.17" height="9"/><rect x="2.5" y="111.53" width="944.95" height="4.5"/><rect x="2.5" y="128.08" width="944.95" height="4.5"/><rect x="2.5" y="143.51" width="944.95" height="4.5"/><rect x="2.5" y="157" width="944.95" height="4.5"/><rect x="55.29" y="176.19" width="892.17" height="9"/><rect x="2.5" y="197.24" width="944.95" height="4.5"/><rect x="2.5" y="213.79" width="944.95" height="4.5"/><rect x="2.5" y="229.22" width="944.95" height="4.5"/><rect x="2.5" y="242.72" width="944.95" height="4.5"/><rect x="52.92" y="257.2" width="892.17" height="9"/><rect y="278.25" width="944.95" height="4.5"/><rect y="294.81" width="944.95" height="4.5"/><rect y="310.24" width="944.95" height="4.5"/><rect y="323.73" width="944.95" height="4.5"/><rect x="50.86" y="340.8" width="892.17" height="9"/><text class="cls-1" transform="translate(5.55 15.9)">7’00<tspan class="cls-2" x="36.57" y="0">”</tspan></text><text class="cls-1" transform="translate(2.5 102.36)">6’00<tspan class="cls-2" x="36.57" y="0">”</tspan></text><text class="cls-1" transform="translate(0 186.65)">5’00<tspan class="cls-2" x="36.57" y="0">”</tspan></text><text class="cls-1" transform="translate(0 267.59)">4’00<tspan class="cls-2" x="36.57" y="0">”</tspan></text><text class="cls-1" transform="translate(0 352.26)">3’00<tspan class="cls-2" x="36.57" y="0">”</tspan></text></g><g id="suspect_5"><path class="cls-3" d="M834.54,487.19S839.28,495,840,497.9c.59,2.32-7.21,6.5-9.84,7.86-.23.12-.74-.48-.9-.64-.58-.59-.92-.26-1.95.46s-.34,3.24-1.87,4.22c-2.43,1.56-19.85,11.78-21.31,12.44-14.32,6.45-25.05,3.34-15.08-8.28,9.18-10.69,15.6-10.05,21.31-16.81S834.54,487.19,834.54,487.19Z"/><path class="cls-3" d="M859.41,521.15s-2.34,10.31-1,12.39,3.71,3.54,4.54,4.38.79-1.23,1.85-1a1.35,1.35,0,0,1,1.17,1.44s-1.07.6.24,2.92c.33.58,20.09,16.66,29.43,18.28,9.85,1.71,13.35-6.21,7.44-13.09-5.69-6.62-11.77-14.84-14.79-17.8s-8.45-9.7-9.44-13.69S859.41,521.15,859.41,521.15Z"/><path class="cls-4" d="M803.7,279.11l46.43,2.31s22.86,58.45,21.71,60.07-2.16,22-1.54,31.47-1.33,54.1.34,60,14.9,78.39,15.45,82.09-35.79,11.78-37.84,3.93S831.19,377.76,825.65,370.6c0,0-2.31-9.52-3.7-12.85s-.23,48.47,0,50.76,3,43.65,5.31,50.81,9,26.34,9.47,28-25.41,18.25-34.66,12.48c0,0,.73-19.41-4.37-33.27s-14.35-87-14.81-93.52-9.19-31.24-6.21-37.94S803.7,279.11,803.7,279.11Z"/><path class="cls-5" d="M811.06,169.32s1.59.16,2.11-6.25S840,161.2,840,161.2s-.11,5.1,3.15,6.77-10.74,22.66-10.74,22.66l-23.78-3.53Z"/><path class="cls-6" d="M843.18,168s-7.14,99.15-12,105-10.4,23.7-10.86,27.5,11.54,32.44,29.8,41.22,24.26-9.88,26.11-15.22-6.48-20.59-7.28-21.05-2.26-4.3-.7-7.32c2.87-5.56.08-25.85-1.52-31.28-1.66-5.63,3-35.07,2.22-38.44s9.12-42.93,12.13-43.48-18.88-9.51-26.88-9.77A12.83,12.83,0,0,1,843.18,168Z"/><path class="cls-7" d="M823.57,183.82l3,2.87,3,.42-4.16,84.61,5.54-85s1.93-2.93,2.54-3.9,8.65-1.23,8.65-1.23-6.69,70.47-7.4,75.21S827,280.26,827,280.26l-11.16-.92s-.34-10,1.36-12.49-5.07-83-5.07-83Z"/><path class="cls-8" d="M877.87,326.5s-11.93-13.12-14.45-13.61,5.66-20.33,3.74-24.21,2.21-12.82,0-16.07c-.63-.93-.88-22.84,1.8-44.21a236.93,236.93,0,0,1,8.51-39.06c.29-.78,1.31-4.57,3.13-4.74,3.29-.31,10,52.1,9.2,59.31s2.19,26.75-.26,38.59-9.59,41.31-10.55,42.7S877.87,326.5,877.87,326.5Z"/><path class="cls-9" d="M810.79,169.32s7.38,90.67,5.72,98.5,1.07,22.67,1.54,25.15,4.13,10.33,3.44,15.88-12.08,47.43-14,48.58-19.43-.69-26.06-7.39A62.51,62.51,0,0,1,771,335.71S782.4,286,782.4,280.26s1.66-62.38-.24-69.31-3.07-27-2-28.16,17-5.08,21.57-7.29S810.52,172.27,810.79,169.32Z"/><path class="cls-10" d="M825.59,186.28s-10.51,84.88-8.35,86.71,7.77,5,10.86,3.76,5.26-15,5.91-17.18,0-73.22-2.82-75.6S825.59,186.28,825.59,186.28Z"/><path class="cls-11" d="M822.3,180.86c.1-.59,10.28-1.15,11.21,0s.81,4.87-2.25,6.24a7.58,7.58,0,0,1-5.28,0A5.26,5.26,0,0,1,822.3,180.86Z"/><path class="cls-12" d="M832.62,180.28s3,9.79,2.79,11.49,6.74-9.53,6.74-9.53l1-14.27S838.39,178.94,832.62,180.28Z"/><path class="cls-12" d="M812.28,185.21l11.29,6.56.81-11.38s-12.28-4-13.32-11.08C810.76,167.27,812.36,186.3,812.28,185.21Z"/><path class="cls-13" d="M822.8,298.58s-1.1-.26-1.56,1.92,2.89,5.3,4.74,4,2.68-3.08,2.32-4S825.28,297.14,822.8,298.58Z"/><path class="cls-14" d="M808.66,139.07s-3.12-1-4.51,0-2.84,4-1.42,8,2.19,4.27,2.67,5.72,1.73,4.31,6.65,2.36S808.66,139.07,808.66,139.07Z"/><path class="cls-15" d="M843.67,135.83s2.42-12.8,1.73-16.44-1.91-8.32-9.36-11.26-15.14-4-19.09-2.26-11,7.69-12,8.35-4.61,6-4.61,8.71.92,16.29,4.61,16.73S843.67,135.83,843.67,135.83Z"/><path class="cls-14" d="M839.27,136.72s2.8-1.7,4.38-1.07,3.71,3.21,3.28,7.47-1.12,4.67-1.24,6.19-.66,4.6-5.9,3.87S839.27,136.72,839.27,136.72Z"/><path class="cls-16" d="M809.88,159.26c.68,1.67,3.81,7.73,6.06,8.72s5.28,4.5,6.28,4.56,6.8.43,10.4-3.22,6.89-6.42,7.58-10.32.35-23.7,0-25.75-1.56-10.9-1.56-10.9-9.82.66-10.54,1.54S825,127,824.38,127s-3.14-1.72-4.06-.85-4.72.17-5.59-1.91-6.41-2.95-7.62-1.91-2.95,1.21-1.73,8.32,2.43,18,2.95,20.79S809.35,158,809.88,159.26Z"/><path class="cls-17" d="M824.11,140.57s10.13-1.73,11.89-1.1,2.2,6.53,1.68,7.41c-.64,1.09-10.4,1.63-11.2.59s-2.38-6.9-2.38-6.9a17.36,17.36,0,0,0-3.84.19c-.58.31,1.63,7-.23,7.22a84.53,84.53,0,0,1-9.13.46c-.53-.11-2.69-4.86-2.13-7.05.2-.78,1.38-.9,3-1a82.89,82.89,0,0,1,9.29.22"/><line class="cls-17" x1="840.39" y1="136.14" x2="836.36" y2="139.2"/><line class="cls-17" x1="806.67" y1="139.93" x2="808.61" y2="142.57"/><path class="cls-18" d="M822.11,293.52S833.84,253,838,225.12c1.79-12.11,2.64-24.71,2.64-24.71s1.08-8.42,1.25-13.7c.3-9.32.28-19,.28-19s5.66,7.46,9,9.91S860.66,198,860.66,198l-14,1.93s20.07-.64,19.55.64S847,242,843.67,249.32c-2.72,6-19.84,40.35-21.38,43.56s1.25-2.55,1.25-2.55"/><path class="cls-18" d="M819.74,298.13s-2.56-42.64-5-70.69c-1.1-12.59-1.17-24.92-1.17-24.92s-1.2-7.94-1.37-13.22c-.3-9.32-1.63-19.25-1.63-19.25s-5.66,7.46-9,9.91S792,200.29,792,200.29l14,1.93s-20.07-.64-19.55.64,18.87,41.1,21.15,48.78c1.94,6.53,10.55,43.27,12.1,46.49s-.5-1.55-.5-1.55"/><path class="cls-19" d="M781.18,182.78s-.33,19.9,2,28.16.29,31.26,0,33.14.6,32.85.23,36.17-7.21,40.87-7.89,40.87"/><path class="cls-20" d="M862.23,308.75s-2.86,6.74,12.27,15.33"/><path class="cls-21" d="M782.72,182s-6.22,1.85-9.22,7.06c-1.43,2.48-12.77,43.42-16,76.7-1.52,15.5-.5,23.38,2.46,32.26,5.53,16.58,11.65,31.07,11.65,31.07l9.6-22.22-1.5-25.79V268.65l4.2-43.64Z"/><path class="cls-5" d="M863.36,313.42a26.44,26.44,0,0,0,2.35,3.44,47.06,47.06,0,0,0,4.66,4c.9.45,3,2.28,3.57,2.38s-5.53-5.76-6-6.14S863.92,313.41,863.36,313.42Z"/><path class="cls-19" d="M784.72,302.64S773.65,330,773,329.38"/><polygon class="cls-5" points="773.15 326.31 773.68 328.07 780.58 311.54 780.66 309.77 773.15 326.31"/></g><g id="suspect_4"><path class="cls-22" d="M670.62,222.16"/><path class="cls-23" d="M653.62,159.91,647.29,164s.52,2.81,2.22,2.35,6-3.92,6-3.92"/><polygon class="cls-24" points="677.24 170.35 684.55 179.03 678.8 185.72 674.84 188.48 677.24 170.35"/><path class="cls-25" d="M679.39,186.07s23-27.62,24.37-27.91,5.22,8.76,8,9.81,22.63,7.66,23.32,16-1.74,33.74-5.57,43.85-15,44.79-15,48.33,11.83,34.18,13.58,49.49,4.53,24.37,4.53,25.41-35.16,11.49-51.17,8.35-28.54-21.23-29.24-27.85-2.09-46.3-2.44-50.47,1.39-34.55,0-38.33-1.3-29,1.74-34.76c3.22-6.06,8.68-21.42,9.37-20S679.39,186.07,679.39,186.07Z"/><path class="cls-22" d="M731.68,179.53s-19.84-7.29-25.76,8.71-4.49,23.47-5.22,26.1"/><polygon class="cls-25" points="677.24 170.35 669.61 173.7 670.62 195.54 674.84 188.48 677.24 170.35"/><polygon class="cls-22" points="650.92 251.58 670.62 222.16 666.28 214.34 650.92 251.58"/><path class="cls-24" d="M659.27,204.68s-3.83,11.52-3.83,14.94v19.82l10.83-25.11Z"/><path class="cls-26" d="M674.84,189.34s-1.31-17.75-3.14-19.71-11.75-15.47-13.12-15.79a1.78,1.78,0,0,0-2.09,2.41c.65,1.37,8.22,12.07,8.22,12.07s-7.57-12.73-9.72-11.75-1.11,2.48-1,3,7,11.24,6.85,12-1.11,1.2-2.09,1.2-2.15,1.5-2.22,2.28a1.18,1.18,0,0,1-1.24,1,3,3,0,0,0-1.67,2.22,1.16,1.16,0,0,1-.94,1.24c-.26,0-1.63,1.76-1.31,2.61s8.35,13.25,10.7,13.38S672.35,193,672.35,193Z"/><path class="cls-22" d="M671.25,222.57s40.49-54.14,39.28-55.74"/><path class="cls-27" d="M676.13,163.56a11,11,0,0,1,1.11,6.4c-.48,3.65,22.84-15.4,22.84-15.4v-1.83s-3.24.36-5.38-5.94S676.13,163.56,676.13,163.56Z"/><path class="cls-25" d="M735.13,190.86s2.63,28.83-11.46,45.2C709.94,252,703.91,257.56,699.39,259s-15.75-9.58-16.1-12.59-23.67-44.42-24.71-45.47,17-14.24,20.78-13.55,13.94,24.42,15.33,25.82,4.26,8.17,7.4,9.84,5.13,10.78,5.13,10.78"/><path class="cls-28" d="M664.74,526.63A79.4,79.4,0,0,1,665,535c-.22,1.36-14.83.85-19.8.46-.67-.05-.69-1.15-.82-1.52-.32-.94-3.69-1.52-6,.24-2.75,2.1-33.16,1.75-35-.22s-.25-4.87-.25-4.87Z"/><path class="cls-28" d="M665,530.52c.06,1.12-5.32.65-8.09.59-5.42-.1-11.34-1.14-16-.9-4.18.22-24.81,1.53-30,1.26-3.78-.19-7.1-.16-7.8-1.64-.27-.57.06-.76.55-1.78,1.75-3.68,16-7.31,23-10.4,7.24-3.18,12.1-4.9,14.16-6.11,1.61-1,24,4.15,24,4.15S664.88,529.09,665,530.52Z"/><path class="cls-29" d="M700.7,152.73s-21.58,15.66-22.63,17.06,5.74,9.07,5.74,9.07l19.4-21.64Z"/><path class="cls-25" d="M647.35,349.83s6.35-12.69,5.62-15.47-3-49.81-3-49.81Z"/><path class="cls-28" d="M658.6,543.89s-1.79,6.45.53,6.94a23,23,0,0,0,6.56,1.18c7.47-.08,17.63-3.09,26.42-5.84,11.29-3.53,10.87-4.62,10.9-6.11a.71.71,0,0,1,1.2-.44c.6.53,1,1.87,1.32,1.75a19.52,19.52,0,0,0,3.76-1.32c.25-.14.3-.45.33-.75.14-1.64-.09-6-.09-6Z"/><path class="cls-28" d="M681.13,525.75s-16.64,11.91-21,15.26a4.1,4.1,0,0,0-1.49,2.89c-.2,2.43,6.26,3.76,9.55,3.11,4.43-.87,40-10,40.9-12s.75-8.79.75-8.79l-23.22-4.13Z"/><path class="cls-30" d="M653,334.36l-4.28,17.56s-2.9,33.42-1.34,43.86-1.57,27.93-1.57,32.89.86,45.59.77,47.66c-.11,2.66-11.22,33.31-11.48,37.75s27.26,4.8,30.39,5.06S674,481.3,674,479.32c0-1.17,5-34.2,5-39.16s4.28-16.3,4.28-16.3-21.47-69.06-19.66-74.54C663.56,349.31,653.46,339.24,653,334.36Z"/><path class="cls-30" d="M649.77,277.54s-7.46-.27-10.77-2,2-21.34,2-21.34,9.35-3.13,9.21-6.66S649.77,277.54,649.77,277.54Z"/><path class="cls-31" d="M654.31,124.46s.1-21.4,10.18-26.63S680,94.2,683.42,95.7,694,105.47,696,117.11Z"/><path class="cls-30" d="M643.7,275.19s5.48-6.09,3.65-13.76-10.71-11.06-12.27-1.14c-1.42,9-2,15.45,5.9,15.2A19.69,19.69,0,0,0,643.7,275.19Z"/><path class="cls-32" d="M687.92,133.16s16.38-9.59,19.62-13.18c.4-.44,0-2.21,0-2.35.19-1.24-1.92-2.68-2.16-2.66s-18.17,6.5-18.17,6.5Z"/><path class="cls-30" d="M714.42,394.36c-1.26,21.74,3,43.45,1.51,61.47s-2,36.29-2.66,41.26c-.32,2.5-1.27,14.34-2.07,18-.56,2.53-.68,8.08-1.14,9.64s-21.65,4.7-24.41-1.31v-11s-.66-66.57-.66-69c0-9.66-15.76-55.22-18.69-74.55-3-19.58-3-19.58-3-19.58s13.34,14.88,40.52,8.87c8.82-1.95,9.75-4.52,12.13-4.29,1.21.11-.61-.38,0,0C717.32,354.73,714.94,385.48,714.42,394.36Z"/><path class="cls-33" d="M705.74,114.94s-14.92-3.37-28.87-1.09c-12.46,2-28.63,10.36-33.4,15,0,0-1.73,3.23,2.75,4.19,4.78,1,15.36,3.13,15.36,3.13Z"/><path class="cls-34" d="M656.17,134.58l28.32-9.14,9.58,10.73s.62-2.25.9-3.29-2.43-14.16-3.82-14.36-19.09,4-20,4.73-12.43,5.26-13.4,6S655.89,130.08,656.17,134.58Z"/><path class="cls-26" d="M632.34,256.56s7.45-7.36,7.84-7.89-.72-4.25-3.14-2.23-9.27,6.79-9.59,10.12,7.31,14.75,8.22,15.14a50.79,50.79,0,0,1,4.58,3.2s3.44.65,4.23-1.37,2.22-1.63-1.57-5.68c0,0,7.28-5.55,7.34-8.78s-2.09-3.57-3.67-2.23-7.06,8.13-7.06,8.13,6.46-6.53,7.51-10-2.41-3-3-2.94-8.68,9.27-8.68,9.27,7.9-7.38,8.22-9.75-1.7-3-2.87-3.11-8.35,8.38-8.35,8.38"/><path class="cls-35" d="M693.65,146.18s5.35-2.18,5.9-4.5,2.36-9.3,1.33-10.18-2.42-2.7-4.66-1.13a8.79,8.79,0,0,0-3.45,4.78C692.77,135.76,693.65,146.18,693.65,146.18Z"/><path class="cls-36" d="M677.41,163.56s19.64-9.46,19.58-13.77-1.91-13.32-2-16.32-2.75,1.78-4.74-5c-1.88-6.43-7.43-5-9-5.09s-17.56,8.16-19.64,8.35-5.41,2.55-5.41,2.87,3.82,11.62,5.35,12.79,4.1,6.66,4.72,7.57S670.74,163.63,677.41,163.56Z"/><path class="cls-22" d="M716,353.89s10.25-4.68,16.68-2.83"/></g><g id="suspect_3"><path class="cls-37" d="M470.79,440.55s-2,50.3-3.67,55.64-9,27.33-12,28.33,11.67,3,13.67,1.67,14.74-20.36,14.7-23.2c0-2.46-2-6.46,0-15.46s10.39-36.57,11.67-43l1.27-6.43Z"/><path class="cls-37" d="M513,449.19s4.16,27.69,2.16,33.18-2.16,7.82-2.16,7.82,13.91,15.37,16.91,21.37,13.78,9.59,19.44,5.42c0,0-14.87-14.46-16.53-24.46s0-45,0-45Z"/><polygon class="cls-38" points="496.39 438.1 495.58 442.19 474.2 440.52 496.39 438.1"/><path class="cls-6" d="M571.85,216.25s22,20.13,23.38,26-1.87,7.88-1.87,7.88-19.77,11.29-22.5,12.38c-3,1.19-13,4.06-15.33,5.31-1.67.88-6.55,2.19-6.92,7.19s1.74,21.52-.44,24.07S536.35,277,536.35,277l1.5-10.12a64.83,64.83,0,0,1,13.13-7.5c6.88-2.75,17.13-15.5,20.75-16.37s.38-2.75-4.5-5.75-9.87-6.5-9.87-6.5l10.25-14.5Z"/><path class="cls-38" d="M510.12,438.1s1.47,8.15,2.84,11.09c.65,1.38,19.82-1.67,19.82-1.67V438.1Z"/><path class="cls-39" d="M475,310.44s-11.56,121.08-8.9,127.75c0,0,6.46,2.67,8.9,2.33s20.1-2.67,26.1-2.67,38.33,0,44,.67,8.23-1.67,11.11-2,4-.33,4-.33-7.38-89-6.56-91.5,2.6-12.5,2.6-12.5L549.69,291l-7.86-18.78-58.71,22Z"/><path class="cls-6" d="M453.45,205.32s-22,20.13-23.37,26,1.88,7.88,1.88,7.88,19.77,11.29,22.5,12.38c3,1.19,13,4.06,15.33,5.31,1.67.88,6.55,2.19,6.92,7.19s-1.74,21.52.44,24.07S489,266.07,489,266.07l-1.5-10.12a64.83,64.83,0,0,0-13.12-7.5c-6.87-2.75-17.12-15.5-20.75-16.37s-.37-2.75,4.5-5.75,9.88-6.5,9.88-6.5l-10.25-14.5Z"/><path class="cls-40" d="M492.58,179.3s10.81.15,12.59-1.73,2.91-7.37,2.16-8.62,4.13,4.63,9.63,4,14.2-6.79,13.83-8.09c-.82-2.93-.83,8.09.54,12.09,1.08,3.13,6.76,12,11.13,13s3.25,19.5,3.25,19.5l-18.12,6.63-32.75-16Z"/><path class="cls-41" d="M486.33,258.39a49.44,49.44,0,0,0,.5,7.5c.5,2,8.44-3,17.72-2.61s37.28.69,37.28.69l-1.34-5.58-27-9.25Z"/><path class="cls-39" d="M474.45,219.69s8,2.25,8.25,12.5,3.75,22.75,4.25,25,19.25-3.25,23.25-2.5,8.5-4.25,13.75-.75,13,3.34,15.75,3.79,4-7.29,3.5-9,1-6,1.75-7.25,1-5.5,1.75-6.75,5.75-6.25,5.75-6.25l7.75-13.5-9.75-7.75-32.21,4.75-40-22.25-10.25,4Z"/><path class="cls-39" d="M492,178.19s-20.75,2.25-22,2.75,4.75,7.75,5,10.5,15.5,16.75,25,18,8,9.5,24.5,11,22.25-3.75,27-3.5,15.5-15.73,15.25-17.49-21.25-9.51-24.25-9.51c0,0,2.5,6.52-.25,9.51s-11.17,12-24,7.74S492,178.19,492,178.19Z"/><path class="cls-39" d="M468.7,222.69s5-.5,5.75-3,.75-24.25,0-25.25-.44-8.25-2.59-8.25-20.41,13.75-20.41,14.75S467.27,222.94,468.7,222.69Z"/><path class="cls-39" d="M552.45,228.44s4.5,3.75,4.75,4.75,22.75-13.5,22.25-14.75-12.41-13.63-13.5-17c0,0-7,10.78-9.83,12.9S552.45,228.44,552.45,228.44Z"/><path class="cls-39" d="M487.45,264.69s26.75-4.5,34-3.75,21,1.83,21,1.83,5.5,9.42,6.75,11.17-20.25,19-30.87,19.25-22.37,1.5-25.87,6.75-13.75,4.25-15.5,5.75-1.94,4.75-1.94,4.75S475.37,273.31,487.45,264.69Z"/><path class="cls-39" d="M543.49,283.66s3.25,17.92,4.8,19.62,6.85,3.56,7.84,3-5.64-22.6-5.31-28.86S541.2,282.22,543.49,283.66Z"/><path class="cls-42" d="M517.55,253c-2.73.81-2.9,6.34,0,7.51s6.18.07,7.15-2.77-.21-4.42-2.64-4.74S518.76,252.66,517.55,253Z"/><path class="cls-39" d="M549.25,305.19s-.14,22,3.2,25,3.33,11,2,12,8,14.67.83-34.33C555.28,307.86,552.72,304.19,549.25,305.19Z"/><path class="cls-43" d="M483.45,500.52s4.17,2,2.25,7.67-6.92,10.33-7.58,15a31.6,31.6,0,0,0,0,8.67H475l.54-12s-5.43,5.33-6.1,10-1.47,9.67-3.73,9.67H448.45s-3.67-3-1.33-6,8-9,8-9,7,4.33,12.67-2.33S482.45,507.19,483.45,500.52Z"/><path class="cls-43" d="M513,490.19s-5.84,3-4.84,8,4,5.67,4.84,12,1.49,9.83,1.49,9.83h2.33s-1.33-9.83,0-11.83,7.67,1,10.33,6,5,12.55,7.33,12.44,18.56-.11,21.78-2.11-4.51-8.53-7-8.6-10.8,3.74-14.8,0-13.33-17.07-16.33-20.07S513,490.19,513,490.19Z"/><path class="cls-44" d="M505.4,168s8.36,6.65,11.58,6.68,11.43-4.48,13.8-9.8c2.78-6.24.13-23.91.13-25s-1.62-8.87-4.62-10.75-9.75-3.75-13.25-2.87-12,1.75-13.37,9.13.5,23.13,1.75,25.75A61.73,61.73,0,0,0,505.4,168Z"/><path class="cls-45" d="M514.08,126.79s-14,4.91-14.42,9.29,1.47,25.8,4.68,30.23-8.56.23-10.39-10.6c-1.88-11.13-6.88-23.55,3.78-32.63,10.45-8.9,16.42-9.67,27.31-6.12,10.69,3.48,14.07,20.87,12.69,29.87s-1,12.25-6.95,18c0,0,2.17-29.15-2.58-32.15s-10.75-7.75-14.12-6"/><path class="cls-46" d="M515.71,163.86l1.43-.21,3.78-3.58-10.42.86S514.37,163.69,515.71,163.86Z"/><path class="cls-47" d="M515.26,159.87s1.12-1.42,1.88-1.24,4.59,1.12,4.77,1.24-6.65,1.66-6.65,1.66l-4.53-.6-.87-.11s3.33-1.83,3.91-1.54A13.15,13.15,0,0,0,515.26,159.87Z"/><path class="cls-45" d="M519.48,128.18s-2,3.81-8.28,2.57-7.07,3.4-7,4.69,1.55,4.5-.74,7.42-2.34,4.92-2,8-3.41,9-4.42,9.22.27-29.88.27-29.88l11.22-6.79,15.06.64Z"/></g><g id="suspect_2"><path class="cls-48" d="M311.21,536s-1,17.68,3.6,24.81,11.92,8.74,15.54,4.19,7.75-12,5.37-29-5.37-22-5.37-22H315.69Z"/><path class="cls-48" d="M353.45,511.78s-2.35,12-1,14.38,3.73,4.11,4.56,5.08.79-1.43,1.86-1.13a1.58,1.58,0,0,1,1.17,1.68s-1.08.7.24,3.38c.33.67,20.2,19.33,29.6,21.21,9.9,2,13.43-7.2,7.49-15.19-5.72-7.68-11.84-17.22-14.87-20.66S374,509.27,373,504.65,353.45,511.78,353.45,511.78Z"/><path class="cls-18" d="M303.43,336l6.48,170.68v1.22l.65,14.22,10.75,5.66L335.69,522l1.94-16.82v-1.07L345.11,354c.08-2.49-.92-3.87,1.81-3.5l.91,2,3.68,144.81-1,1.22,1,13.31,18.4,7.19,9.33-5.2,1.17-18.2-1-.46,12.31-161.81"/><path class="cls-49" d="M395.74,326.41s.08,3.83-1.17,4.33,2.92,2.17,3.67,2.17,4.33-1.75,4.42-3.25a27.62,27.62,0,0,0-.75-6.08c-.33-1.17,1.52-2.67.76-1.33s.16,8.17.49,7.75,2.67-9,3.75-10.5a6.06,6.06,0,0,0,1-3.42s-2.33,6.58-1.83,6.83,4.42-4.58,5.08-7.17-.83-10-.83-10-14.58-9.58-18.92-2.08c0,0,.33.83-.75,4.25s-.5,13.33,0,15.5,1.08,5.75,1.58,5.92,1.92,1.42,2.75,0-.08-13.08-1.75-14.58"/><path class="cls-49" d="M300,331s-.08,3.83,1.17,4.33-2.92,2.17-3.67,2.17-4.33-1.75-4.42-3.25a27.62,27.62,0,0,1,.75-6.08c.33-1.17-1.52-2.67-.76-1.33s-.16,8.17-.49,7.75-2.67-9-3.75-10.5a6.06,6.06,0,0,1-1-3.42s2.33,6.58,1.83,6.83-4.42-4.58-5.08-7.17.83-10,.83-10,14.58-9.58,18.92-2.08c0,0-.33.83.75,4.25s.5,13.33,0,15.5-1.08,5.75-1.58,5.92-1.92,1.42-2.75,0,.08-13.08,1.75-14.58"/><path class="cls-50" d="M330.56,337.16s-8.25.13-11.62,0-8.12.86-11.75.49a54.26,54.26,0,0,1-6.93-1.3c-1.2-.68,4.27-54.08,4.67-66.44.08-2.57,15.94-69,18.13-78.29.16-.69,22.58,27.33,22.58,27.33"/><path class="cls-51" d="M325.61,289.11s-19.12,1.42-25.64-1.94"/><path class="cls-52" d="M321.09,288.87s-12.41.52-15.69-.77-3.07-1.29-3.07-1.29,11.94.16,13.21.42S321.22,288.11,321.09,288.87Z"/><path class="cls-53" d="M333.76,147.37s-7.33,7.67-8.67,8.33-32,12.33-32.33,14-11,53.33-11,55.67-1.67,41.83-1,43.83,4.17,38.08,2.17,40.33,22.13-2.5,22.5-2.75-.35-17.41-.77-30.74c-.25-8.12-.45-14.79-.35-15.26.25-1.25,3-35.13,2.88-37.63s-1.25,28.5-1.25,28.5,1,12.79-1.42,19.54"/><path class="cls-54" d="M302.33,307.47s-2.55,28.69-2.07,28.88a40.13,40.13,0,0,0,9,1.38c9.05.38,21.68-.09,21.68-.09"/><path class="cls-50" d="M330.56,337.63s41,1.5,45.63,0,17.74-1.12,18.24-2.12-1.62-49.07-1.51-55.81c0-.52-16.13-73.5-17.74-80.67-.08-.38-34,54.17-34,54.17"/><path class="cls-53" d="M362.65,146.15s7.5,9.25,9,9.63,31,11.63,31.5,12.5S413,215,413.28,231.4s3.13,64.25,0,76.13c0,0-19.37-5-21.75-3,0,0,1.23-15.22,1.36-22.62a22,22,0,0,0-.11-3.63c-.62-3-1.62-24.75-1.87-27.5s-.25-26.75.25-29.87-.87,30.13-.87,30.13-.87,20.58,2.38,28.33"/><path class="cls-54" d="M295.69,167.88s13.38,28.67,11.49,55.28"/><path class="cls-54" d="M400.69,166.43s-10.26,32.35-9.26,54"/><path class="cls-18" d="M330.93,338.3s0-68,1.5-71.14,23.13-39.13,27.25-44,26.13-43.75,26.63-45-19-.62-19-.62l13.63-1.87s-6-17.37-9.25-19.75-8.75-9.62-8.75-9.62,0,22.88-4.31,31.63a179.62,179.62,0,0,0-8.87,25.19c-7.12,25.31-15.14,60.18-15.14,60.18"/><path class="cls-18" d="M351.68,197.16s-17.21-32.5-17.92-48.5c0,0-6.33,6.63-9.21,8s-6,19.5-6,19.5,8.25,1.25,9.13,1.25-14.75-.12-14.87.38,33.38,41.16,33.38,41.16"/><path class="cls-55" d="M343.43,166.43s2.75.91,2.88,1.44,2.13-2,4.63-.72-.62-2.12,4.38-2.62a6.34,6.34,0,0,0-3.62-4.5A6.51,6.51,0,0,0,343.43,166.43Z"/><path class="cls-56" d="M346.06,168.91a6,6,0,0,1,.75,2.63c-.12,1,3-.76,4.9-.26,0,0-.44-3.38,0-3.84s-5.75-2.13-5.37.45S346.06,168.91,346.06,168.91Z"/><path class="cls-55" d="M346.81,171.53s-4.64,5.46-4.26,6.36S351.68,198,351.68,198l6.63-19.43s-1-4.32-2.38-5.44a10,10,0,0,0-4.25-2.25A43.36,43.36,0,0,0,346.81,171.53Z"/><path class="cls-57" d="M326.71,98.49s-.34-11.21,0-12.08S332.31,73.66,345.31,74s16.51,7.13,16.51,7.13,3.49,3.6,3.61,7.49S327.37,100,326.71,98.49Z"/><path class="cls-58" d="M334.43,147.37s2.5,7.54,9,9.54,5.94,2.89,5.94,2.89-8.5,10.33-8.94,11.11S334.31,154.82,334.43,147.37Z"/><path class="cls-58" d="M362.31,145s.42,8.5-10.6,13.75l-2.33,1s11.37,8.15,11.13,12S363.56,146.41,362.31,145Z"/><path class="cls-59" d="M339.84,171.27l2.84,6,4.13-5.69s.1-3.15-.5-3.66-2.87-2.08-2.87-1.44S339.84,171.27,339.84,171.27Z"/><path class="cls-60" d="M378.68,92.68s-12.08-8.78-34.35-.9-27,10.91-28.15,13.46S378.68,92.68,378.68,92.68Z"/><path class="cls-61" d="M324.09,120.78s-16.53-5.12-9.66-13.37,36-16.5,45.63-17.5,24.88,1.38,23.13,11.12-12,14.75-13.37,15.25S324.09,120.78,324.09,120.78Z"/><path class="cls-59" d="M356,164.53a2.91,2.91,0,0,0-2.57,0,5.49,5.49,0,0,0-1.71,2.89c-.87,3-.62,2.23,0,3.48s5.63,2.51,6.63,7.69l2.5-7.7s-1.1-1.63-2.18-3.2A15.57,15.57,0,0,0,356,164.53Z"/><path class="cls-62" d="M349.38,159.15s11.18-14.87,12.05-15.24,0-4.5,0-4.5-9.08,9.87-9.73,9.87-7.58.38-9.17-.62-7.85-6.87-8.1-7.5.67,4.92,0,6.21S338.83,157.76,349.38,159.15Z"/><path class="cls-38" d="M330.93,120.16s-1.5-5.37-5.38-3.37,1.13,8.38,1.38,9.25.88,5.37,4,5.25S330.93,120.16,330.93,120.16Z"/><path class="cls-52" d="M361.77,143.24a5.6,5.6,0,0,0,.64,1.58c.29.27-1.07,5.31-2,6.46a21.47,21.47,0,0,1-2.91,3.61,27.7,27.7,0,0,1-4.82,3.39c-.75.23-3.09,1.55-3.33,1.52s-5-2-5-2l5.05,1.36S361.33,143.37,361.77,143.24Z"/><path class="cls-62" d="M364.93,121.28s4.13-5,4.88-5,.25-3.37,1.13-4.87.25-12.12-10.87-12.87-32.37,9.12-33.5,15a26,26,0,0,0-1,3.25c0,.5,2-1.37,3.88,1.75S364.93,121.28,364.93,121.28Z"/><path class="cls-63" d="M364.55,130.21a4.08,4.08,0,0,0,4.89-1.81c2.13-3,4.13-5.87,3.75-8.12s-.62-4.62-3.37-4S367,118.82,366,120,364.55,130.21,364.55,130.21Z"/><path class="cls-64" d="M334.43,141.79s7.69,7.14,8.66,7.48a34.47,34.47,0,0,0,8.61,0c1.85-.37,8.85-9.37,9.73-9.87s4.63-13.75,4.75-17.25-1.5-3.37-1.37-4.5,1.38-3,.25-4.25,2.13-6.62,2.13-7.37-5.56-5.62-11.22-5.62-23.78,6.38-25,14.13.12,16.25.62,17.5S333.36,140.73,334.43,141.79Z"/><path class="cls-54" d="M303.87,307.66"/><path class="cls-54" d="M331.49,337.64s42,.72,44,.15,18.84-1.36,18.95-2.28-2-31.35-2-31.35"/><path class="cls-65" d="M347.38,133.51a3.09,3.09,0,0,1,2.34-.34,12.59,12.59,0,0,1,2.43,1.41c.16.2,3.7,1,3.95-.76s-1.48-1.26-1.48-1.26,0-1.35,1.18-1.28a2.06,2.06,0,0,1,2.05,1.82c0,.94-.39,3.28-1.51,3.75-.6.26-5.68,1.3-7.69.08l-2-1.21Z"/><path class="cls-65" d="M347.47,133.51a3.09,3.09,0,0,0-2.34-.34,12.59,12.59,0,0,0-2.43,1.41c-.16.2-3.7,1-3.95-.76s1.48-1.26,1.48-1.26,0-1.35-1.18-1.28a2.06,2.06,0,0,0-2.05,1.82c0,.94.39,3.28,1.51,3.75.6.26,5.68,1.3,7.69.08l2-1.21Z"/><polyline class="cls-66" points="337.64 504.62 320.36 511.58 309.91 507.91"/><polyline class="cls-66" points="350.46 498.58 369.68 502.71 380.39 495.68"/><path class="cls-51" d="M363.62,289s19.09,1.78,25.67-1.45"/><path class="cls-52" d="M368.15,288.89s12.39.75,15.7-.47,3.1-1.23,3.1-1.23-11.94-.06-13.21.17S368,288.12,368.15,288.89Z"/><line class="cls-54" x1="320.36" y1="511.58" x2="322.86" y2="338.01"/><line class="cls-54" x1="369.68" y1="502.71" x2="373.23" y2="338.01"/></g><g id="suspect_1"><path class="cls-65" d="M190.1,515.59s-1.5,9,0,10.17,6.83.83,9.67,1a15.67,15.67,0,0,0,6.16-.67c1.51-.5,5.51.67,6.34,2.17s12.33,6,16.17,6,19,1.67,19.33-.67,4.17-5.83-4-9.83-20-7.67-22.17-11.67S190.1,515.59,190.1,515.59Z"/><path class="cls-65" d="M145.08,529s7,14.59,8.86,16.09,2.5,11-4.42,10.33-24.25-2.5-24.58-6-.33-6.67-1.83-8-3.05-6.67-2.53-8.67a65.6,65.6,0,0,0,1-6.5Z"/><path class="cls-67" d="M227.15,315.21s-7.76,94.49-8.28,100.08c-.5,5.33,5.61,97.34,8.14,100.3s-28.86,8.2-41.91-1.41c.06,1.27-3-89.9-4.73-106.39-.72-6.9,2.45-92.12,2.45-92.12s13.64-20.35,13.64-23.89-.08,23.24,2.87,24.35S227.15,315.21,227.15,315.21Z"/><path class="cls-67" d="M136.6,318.29s59.25-4.05,58.85-2.86S151.69,523.62,151.35,529s-28.92-.36-30.58-1.36S136.6,318.29,136.6,318.29Z"/><path class="cls-68" d="M224.67,500.1s-1,1.52-11.73,5.13a3.41,3.41,0,0,1-.73.08c-9.37,1-17.6,1.55-27.52-1.2"/><path class="cls-68" d="M152.87,520.61s-25,2.83-31.8-4.17"/><path class="cls-69" d="M203.82,228.59s-1.26,106.8-16,106.8-46.4,8.53-59.73-2.13c0,0,4.67-73.33,8.33-84.33s.05-21.45-.67-23.67c-2.9-9,1.34-16.46,4.83-30.18,5-19.46,8.17-40.49-4.5-43.82,0,0,25.33-2,31.67-11.67,0,0,21,43,21.67,46S203.86,226.27,203.82,228.59Z"/><path class="cls-70" d="M192.11,159.15s7.77,39,12.38,42.7,2.4,24,2.4,24l-5.18,2.78-18.22-38.45,4.35-30.61Z"/><path class="cls-69" d="M137.09,246.66s-6.64-5.6-5.64-8.78,8.72-26.37,11.42-40.08a95.24,95.24,0,0,0,1.83-19c-.31-20.53-.14-25.2-7.81-27.53s-19.33,12-20.67,19.67-11.67,42.67-11.67,48.67-4,16.67-3,21.67,28.33,40.64,30.35,42.25a10.76,10.76,0,0,1-.26,2.79C132,281,137.09,246.66,137.09,246.66Z"/><path class="cls-69" d="M199.47,150.79s30.67,10,34,14.67-2.42,68.24-8.93,95.83c0,0,0,6,1,18.5s4.56,56.94,2.23,57.47-21,6.2-26,3.53-3.43-32.75-3-35.86,5.14-79.8,6.09-95.14S196.14,154.79,199.47,150.79Z"/><path class="cls-71" d="M200.53,139.63s-3.54,4.18-2.14,9.32-6.6,5.65-6.6,5.65l-24.36-14,1.41-2.92s3.36-8,2.73-15.5S200.53,139.63,200.53,139.63Z"/><path class="cls-68" d="M177.73,196.26s-28.29-2.67-29.29-2.33"/><path class="cls-72" d="M174.77,195.08s2.67-2.15,0-3.15-15.87-3.33-18.6-2.67,0,5.1,0,5.1Z"/><path class="cls-72" d="M188.29,160.1c0-3.45-4.24-3.42-3.52-5s-5.31,8.31-5.31,8.31l1.37,5.65,4.82,8.89S188.29,163.55,188.29,160.1Z"/><path class="cls-72" d="M191.83,159.31s5.85-3.76,6.2-1.76a93.39,93.39,0,0,1,3.49,13.2c1.48,8.66,2.14,19.77,3,26.31a10.93,10.93,0,0,1-.52,5.81S190.25,164.31,191.83,159.31Z"/><path class="cls-73" d="M186.1,151.26l-17.33-11.71s5.87,23.71,9.1,24.21S186.1,151.26,186.1,151.26Z"/><path class="cls-73" d="M198.79,148.95s-7,2.47-6.67,3.73.52,8.27,2.1,8.27,3.83-4.33,3.54-6S199.47,150.79,198.79,148.95Z"/><path class="cls-68" d="M166.1,278.26s-.3,7-5.85,6.67-20.58.36-22,0-1.67-8.34-1.67-8.34"/><path class="cls-68" d="M223.1,276.59s-.79,6.89,1.44,8.44"/><path class="cls-68" d="M203.82,231.59s-1,48.35-5.41,78.87c-1.91,13.14-6,22.71-8.41,24.11-4.4,2.57-23.9,2.38-38.65,4a36,36,0,0,1-23.25-5.35"/><path class="cls-74" d="M161.16,144.64s.33,13.33,0,15.33,6.67,3.67,6.67,3.67l-6.68,5L204.49,231s-33-92-35.33-92.69S164.16,144.31,161.16,144.64Z"/><path class="cls-32" d="M161.48,97.58s-.27-14.11.72-15.11,7.37-10.4,15.77-10.95,22.41.09,24.66,7,5.66,14.84,5.12,19.09c0,0-14.73-3.17-15.36-3.17s-7.64-.63-9.7-.09-11.14,3.08-12.94,4.43S161.48,97.58,161.48,97.58Z"/><path class="cls-75" d="M191.75,151.05s-4.71-.71-5.65.21-3.45,5,1,8.6l1,.31a9.4,9.4,0,0,0,4.86-1.12C193.92,157.63,193.08,151.21,191.75,151.05Z"/><path class="cls-74" d="M197.58,154.38s8.24,31.1,7.34,53.24c-.17,4.16-.85,12.08-1.1,14.67-.53,5.41.69,10.92.47,11.84-.17.71,2.93-8.42,3.34-10.33,2.33-10.91-.94-70.76-.94-70.76l-7.79-3Z"/><path class="cls-68" d="M224.54,192.11s-2,37.3-1.66,53.23c0,.94,1.62,11.83,1.66,12.61"/><path class="cls-76" d="M208.76,115.13s16-7,15.68-9.86.35-6.1-16.78-10.41c-2.67-.67-10-2.73-15.82-3.12-11.29-.77-25.5,1.72-34.77,6.75-14,7.6-9.88,15.92-7.55,17.55s12.13,5.52,17.34,6S208.76,115.13,208.76,115.13Z"/><path class="cls-71" d="M172.76,126a5.85,5.85,0,0,1-6.83-3.71c-2.16-5-5.48-5.34-5.39-7.6s-.18-5.52,3.59-5.43,4.94,1,5.75,3.44,5.85,10.95,3.33,13S172.76,126,172.76,126Z"/><path class="cls-77" d="M208.64,114.68s.27,8.05-.9,10.13-1.17,15.65-6.2,15.74-17.24,2.8-23.58-5.43-7.68-11.22-7.5-15.74-.66-5.7,0-5.88,4.24,1.81,4.06-2.53-1-8.78.9-10.13,8.35-6.15,11.59-6,14,2.35,16.62,5.16S209.45,108.35,208.64,114.68Z"/><path class="cls-68" d="M165.6,337.58s-20.91,178.23-25.07,183.6"/><polyline class="cls-68" points="210.71 341.12 208.47 412.79 212.21 505.31"/></g></g></svg>